# Blender 5.0.0
# www.blender.org
mtllib lowqbucket_01.mtl
o Cylinder
v 0.000000 -0.016315 -0.592344
v 0.000000 1.882626 -1.000000
v 0.115561 -0.016315 -0.580962
v 0.195090 1.882626 -0.980785
v 0.226680 -0.016315 -0.547254
v 0.382683 1.882626 -0.923880
v 0.329088 -0.016315 -0.492516
v 0.555570 1.882626 -0.831470
v 0.418850 -0.016315 -0.418850
v 0.707107 1.882626 -0.707107
v 0.492516 -0.016315 -0.329088
v 0.831470 1.882626 -0.555570
v 0.547254 -0.016315 -0.226680
v 0.923880 1.882626 -0.382683
v 0.580962 -0.016315 -0.115560
v 0.980785 1.882626 -0.195090
v 0.592344 -0.016315 -0.000000
v 1.000000 1.882626 0.000000
v 0.580962 -0.016315 0.115560
v 0.980785 1.882626 0.195090
v 0.547254 -0.016315 0.226680
v 0.923880 1.882626 0.382683
v 0.492516 -0.016315 0.329088
v 0.831470 1.882626 0.555570
v 0.418850 -0.016315 0.418850
v 0.707107 1.882626 0.707107
v 0.329088 -0.016315 0.492516
v 0.555570 1.882626 0.831470
v 0.226680 -0.016315 0.547254
v 0.382683 1.882626 0.923880
v 0.115561 -0.016315 0.580962
v 0.195090 1.882626 0.980785
v 0.000000 -0.016315 0.592344
v 0.000000 1.882626 1.000000
v -0.115560 -0.016315 0.580962
v -0.195090 1.882626 0.980785
v -0.226680 -0.016315 0.547254
v -0.382683 1.882626 0.923880
v -0.329088 -0.016315 0.492516
v -0.555570 1.882626 0.831470
v -0.418850 -0.016315 0.418850
v -0.707107 1.882626 0.707107
v -0.492516 -0.016315 0.329088
v -0.831470 1.882626 0.555570
v -0.547254 -0.016315 0.226680
v -0.923880 1.882626 0.382683
v -0.580962 -0.016315 0.115560
v -0.980785 1.882626 0.195090
v -0.592343 -0.016315 -0.000000
v -1.000000 1.882626 0.000000
v -0.580962 -0.016315 -0.115560
v -0.980785 1.882626 -0.195090
v -0.547254 -0.016315 -0.226680
v -0.923880 1.882626 -0.382683
v -0.492516 -0.016315 -0.329088
v -0.831470 1.882626 -0.555570
v -0.418850 -0.016315 -0.418850
v -0.707107 1.882626 -0.707107
v -0.329088 -0.016315 -0.492516
v -0.555570 1.882626 -0.831470
v -0.226680 -0.016315 -0.547254
v -0.382683 1.882626 -0.923880
v -0.115560 -0.016315 -0.580962
v -0.195090 1.882626 -0.980785
v 0.148306 1.882626 -0.745584
v 0.000000 1.882626 -0.760191
v 0.290913 1.882626 -0.702325
v 0.422339 1.882626 -0.632076
v 0.537536 1.882626 -0.537536
v 0.632076 1.882626 -0.422339
v 0.702325 1.882626 -0.290913
v 0.745584 1.882626 -0.148306
v 0.760191 1.882626 -0.000000
v 0.745584 1.882626 0.148306
v 0.702325 1.882626 0.290913
v 0.632076 1.882626 0.422339
v 0.537536 1.882626 0.537536
v 0.422339 1.882626 0.632076
v 0.290913 1.882626 0.702325
v 0.148306 1.882626 0.745584
v 0.000000 1.882626 0.760191
v -0.148306 1.882626 0.745584
v -0.290913 1.882626 0.702325
v -0.422339 1.882626 0.632076
v -0.537536 1.882626 0.537536
v -0.632076 1.882626 0.422339
v -0.702325 1.882626 0.290913
v -0.745584 1.882626 0.148306
v -0.760191 1.882626 -0.000000
v -0.745584 1.882626 -0.148306
v -0.702325 1.882626 -0.290913
v -0.632076 1.882626 -0.422339
v -0.537536 1.882626 -0.537536
v -0.422339 1.882626 -0.632076
v -0.290913 1.882626 -0.702325
v -0.148306 1.882626 -0.745584
v 0.087848 0.167444 -0.441642
v 0.000000 0.167444 -0.450294
v 0.172320 0.167444 -0.416018
v 0.250170 0.167444 -0.374406
v 0.318406 0.167444 -0.318406
v 0.374406 0.167444 -0.250170
v 0.416018 0.167444 -0.172320
v 0.441642 0.167444 -0.087848
v 0.450294 0.167444 -0.000000
v 0.441642 0.167444 0.087848
v 0.416018 0.167444 0.172320
v 0.374406 0.167444 0.250170
v 0.318406 0.167444 0.318406
v 0.250170 0.167444 0.374406
v 0.172320 0.167444 0.416018
v 0.087848 0.167444 0.441642
v 0.000000 0.167444 0.450294
v -0.087848 0.167444 0.441642
v -0.172320 0.167444 0.416018
v -0.250170 0.167444 0.374406
v -0.318406 0.167444 0.318406
v -0.374406 0.167444 0.250170
v -0.416018 0.167444 0.172320
v -0.441642 0.167444 0.087848
v -0.450294 0.167444 -0.000000
v -0.441642 0.167444 -0.087848
v -0.416018 0.167444 -0.172320
v -0.374406 0.167444 -0.250170
v -0.318406 0.167444 -0.318406
v -0.250170 0.167444 -0.374406
v -0.172320 0.167444 -0.416018
v -0.087848 0.167444 -0.441642
vn -0.0000 -0.2099 -0.9777
vn 0.1907 -0.2099 -0.9589
vn 0.3742 -0.2099 -0.9033
vn 0.5432 -0.2099 -0.8129
vn 0.6914 -0.2099 -0.6914
vn 0.8129 -0.2099 -0.5432
vn 0.9033 -0.2099 -0.3742
vn 0.9589 -0.2099 -0.1907
vn 0.9777 -0.2099 -0.0000
vn 0.9589 -0.2099 0.1907
vn 0.9033 -0.2099 0.3742
vn 0.8129 -0.2099 0.5432
vn 0.6914 -0.2099 0.6914
vn 0.5432 -0.2099 0.8129
vn 0.3742 -0.2099 0.9033
vn 0.1907 -0.2099 0.9589
vn -0.0000 -0.2099 0.9777
vn -0.1907 -0.2099 0.9589
vn -0.3742 -0.2099 0.9033
vn -0.5432 -0.2099 0.8129
vn -0.6914 -0.2099 0.6914
vn -0.8129 -0.2099 0.5432
vn -0.9033 -0.2099 0.3742
vn -0.9589 -0.2099 0.1907
vn -0.9777 -0.2099 -0.0000
vn -0.9589 -0.2099 -0.1907
vn -0.9033 -0.2099 -0.3742
vn -0.8129 -0.2099 -0.5432
vn -0.6914 -0.2099 -0.6914
vn -0.5432 -0.2099 -0.8129
vn -0.3742 -0.2099 -0.9033
vn -0.0000 1.0000 -0.0000
vn -0.1907 -0.2099 -0.9589
vn -0.0000 -1.0000 -0.0000
vn 0.5467 0.1778 0.8182
vn 0.6958 0.1778 0.6958
vn -0.0000 0.1778 -0.9841
vn -0.1920 0.1778 -0.9652
vn -0.5467 0.1778 0.8182
vn -0.3766 0.1778 0.9092
vn 0.3766 0.1778 0.9092
vn 0.1920 0.1778 -0.9652
vn -0.6958 0.1778 0.6958
vn 0.1920 0.1778 0.9652
vn 0.3766 0.1778 -0.9092
vn -0.8182 0.1778 0.5467
vn -0.0000 0.1778 0.9841
vn 0.5467 0.1778 -0.8182
vn -0.9092 0.1778 0.3766
vn 0.6958 0.1778 -0.6958
vn -0.9652 0.1778 0.1920
vn 0.8182 0.1778 -0.5467
vn -0.9841 0.1778 -0.0000
vn 0.9092 0.1778 -0.3766
vn -0.9652 0.1778 -0.1920
vn 0.9652 0.1778 -0.1920
vn -0.9092 0.1778 -0.3766
vn 0.9841 0.1778 -0.0000
vn -0.8182 0.1778 -0.5467
vn 0.9652 0.1778 0.1920
vn -0.6958 0.1778 -0.6958
vn 0.9092 0.1778 0.3766
vn -0.5467 0.1778 -0.8182
vn 0.8182 0.1778 0.5467
vn -0.3766 0.1778 -0.9092
vn -0.1920 0.1778 0.9652
vt 0.569741 0.219383
vt 0.339025 0.246856
vt 0.338947 0.202219
vt 0.569695 0.192942
vt 0.338947 0.156707
vt 0.569695 0.165984
vt 0.339025 0.112070
vt 0.569741 0.139543
vt 0.339179 0.070023
vt 0.569832 0.114637
vt 0.339402 0.032182
vt 0.569964 0.092222
vt 0.339686 -0.000000
vt 0.570133 0.073159
vt 0.378160 0.715600
vt 0.338947 0.359857
vt 0.363467 0.359462
vt 0.392684 0.715366
vt 0.390712 0.359168
vt 0.408823 0.715192
vt 0.419635 0.358987
vt 0.425955 0.715084
vt 0.449125 0.358926
vt 0.443424 0.715048
vt 0.478048 0.358987
vt 0.460556 0.715084
vt 0.505294 0.359168
vt 0.476695 0.715192
vt 0.529814 0.359462
vt 0.491219 0.715366
vt 0.550667 0.359857
vt 0.503572 0.715600
vt 0.589571 0.715452
vt 0.550667 0.359629
vt 0.575187 0.359284
vt 0.604096 0.715248
vt 0.602432 0.359047
vt 0.620234 0.715108
vt 0.631356 0.358926
vt 0.637367 0.715036
vt 0.660846 0.358926
vt 0.654835 0.715036
vt 0.689769 0.359047
vt 0.671967 0.715108
vt 0.717014 0.359284
vt 0.688106 0.715248
vt 0.741534 0.359629
vt 0.702630 0.715452
vt 0.144613 0.819544
vt 0.097518 0.463801
vt 0.118371 0.463406
vt 0.156965 0.819310
vt 0.142891 0.463112
vt 0.171490 0.819135
vt 0.170136 0.462931
vt 0.187629 0.819028
vt 0.199060 0.462870
vt 0.204761 0.818992
vt 0.228550 0.462931
vt 0.222229 0.819028
vt 0.257473 0.463112
vt 0.239362 0.819135
vt 0.284718 0.463406
vt 0.255500 0.819310
vt 0.309238 0.463801
vt 0.270024 0.819544
vt 0.570133 0.285767
vt 0.339686 0.358926
vt 0.339402 0.326745
vt 0.569964 0.266704
vt 0.183021 0.450905
vt 0.161052 0.432072
vt 0.174765 0.383958
vt 0.191465 0.398274
vt 0.339179 0.288903
vt 0.569832 0.244289
vt 0.550667 0.861290
vt 0.550667 0.834378
vt 0.553415 0.808163
vt 0.558805 0.783653
vt 0.566630 0.761791
vt 0.576590 0.743417
vt 0.588301 0.729236
vt 0.601314 0.719793
vt 0.615129 0.715452
vt 0.629214 0.716380
vt 0.643028 0.722540
vt 0.656041 0.733695
vt 0.667753 0.749418
vt 0.677713 0.769104
vt 0.685538 0.791997
vt 0.690928 0.817216
vt 0.693676 0.843793
vt 0.693676 0.870705
vt 0.690928 0.896920
vt 0.685538 0.921430
vt 0.677713 0.943292
vt 0.667753 0.961666
vt 0.656042 0.975847
vt 0.643028 0.985290
vt 0.629214 0.989631
vt 0.615129 0.988703
vt 0.601314 0.982543
vt 0.588301 0.971388
vt 0.576590 0.955665
vt 0.566630 0.935979
vt 0.558805 0.913086
vt 0.553415 0.887867
vt 0.585985 0.000333
vt 0.604625 0.000595
vt 0.626600 0.320221
vt 0.615559 0.320066
vt 0.338947 0.262100
vt 0.334308 0.306356
vt 0.306472 0.288389
vt 0.309998 0.254746
vt 0.206343 0.000000
vt 0.230122 0.001565
vt 0.227270 0.056690
vt 0.209194 0.055500
vt 0.111256 0.333647
vt 0.102157 0.291072
vt 0.129993 0.276771
vt 0.136910 0.309136
vt 0.295183 0.415661
vt 0.275412 0.439601
vt 0.261700 0.389681
vt 0.276730 0.371482
vt 0.295183 0.057342
vt 0.311997 0.090576
vt 0.289512 0.124355
vt 0.276730 0.099091
vt 0.111256 0.115137
vt 0.124467 0.078230
vt 0.146953 0.114970
vt 0.136910 0.143027
vt 0.206343 0.461305
vt 0.209194 0.406180
vt 0.338947 0.216665
vt 0.309998 0.220207
vt 0.183021 0.007328
vt 0.191465 0.061071
vt 0.124467 0.372294
vt 0.146953 0.338515
vt 0.311997 0.384640
vt 0.289512 0.347900
vt 0.275412 0.030798
vt 0.261700 0.078913
vt 0.102157 0.156514
vt 0.129993 0.174481
vt 0.230122 0.462870
vt 0.227270 0.407370
vt 0.334308 0.171798
vt 0.306472 0.186100
vt 0.161052 0.023269
vt 0.174765 0.073189
vt 0.141281 0.405528
vt 0.159735 0.363779
vt 0.325208 0.347733
vt 0.299554 0.319843
vt 0.253443 0.011965
vt 0.244999 0.064596
vt 0.097518 0.200771
vt 0.126466 0.208124
vt 0.253443 0.455542
vt 0.244999 0.401799
vt 0.325208 0.129223
vt 0.299554 0.153734
vt 0.141281 0.047210
vt 0.159735 0.091389
vt 0.097518 0.246205
vt 0.126466 0.242663
vt 0.341036 0.846668
vt 0.338947 0.826465
vt 0.338947 0.806006
vt 0.341036 0.786077
vt 0.345133 0.767446
vt 0.351082 0.750826
vt 0.358653 0.736858
vt 0.367556 0.726078
vt 0.377448 0.718900
vt 0.387950 0.715600
vt 0.398657 0.716305
vt 0.409159 0.720987
vt 0.419051 0.729468
vt 0.427954 0.741421
vt 0.435526 0.756386
vt 0.441474 0.773788
vt 0.445572 0.792960
vt 0.447661 0.813163
vt 0.447661 0.833622
vt 0.445572 0.853550
vt 0.441474 0.872182
vt 0.435526 0.888801
vt 0.427954 0.902769
vt 0.419051 0.913550
vt 0.409159 0.920728
vt 0.398657 0.924028
vt 0.387950 0.923323
vt 0.377448 0.918640
vt 0.367556 0.910159
vt 0.358653 0.898207
vt 0.351082 0.883242
vt 0.345133 0.865839
vt 0.852677 0.000442
vt 0.873388 0.000262
vt 0.851412 0.319887
vt 0.839144 0.319994
vt 0.796739 0.359588
vt 0.818726 0.359634
vt 0.823573 0.679139
vt 0.810549 0.679111
vt 0.570133 -0.000000
vt 0.606169 0.319868
vt 0.830689 0.000534
vt 0.826120 0.320049
vt 0.776027 0.359450
vt 0.798281 0.679030
vt 0.883843 0.359227
vt 0.902482 0.358926
vt 0.873186 0.678719
vt 0.862145 0.678897
vt 0.808271 0.000534
vt 0.812841 0.320049
vt 0.757387 0.359227
vt 0.787239 0.678897
vt 0.863131 0.359450
vt 0.849876 0.679030
vt 0.786284 0.000442
vt 0.799817 0.319994
vt 0.741534 0.358926
vt 0.777849 0.678719
vt 0.765572 0.000262
vt 0.787548 0.319887
vt 0.883843 0.679439
vt 0.902482 0.679139
vt 0.873186 0.998932
vt 0.862145 0.999110
vt 0.746932 -0.000000
vt 0.776507 0.319732
vt 0.863131 0.679663
vt 0.849877 0.999242
vt 0.731080 0.000333
vt 0.746932 -0.000000
vt 0.710895 0.319868
vt 0.701506 0.320066
vt 0.841144 0.679800
vt 0.836853 0.999324
vt 0.712440 0.000595
vt 0.690464 0.320221
vt 0.818726 0.679847
vt 0.823573 0.999351
vt 0.691729 0.000776
vt 0.678196 0.320328
vt 0.796739 0.679800
vt 0.810549 0.999324
vt 0.669742 0.000868
vt 0.665172 0.320382
vt 0.776027 0.679663
vt 0.798281 0.999242
vt 0.647323 0.000868
vt 0.651893 0.320382
vt 0.757387 0.679439
vt 0.787239 0.999110
vt 0.625336 0.000776
vt 0.638869 0.320328
vt 0.741534 0.679139
vt 0.777849 0.998932
vt 0.841144 0.359588
vt 0.836852 0.679111
vt 0.892028 -0.000000
vt 0.862453 0.319732
s 1
usemtl Material.001
f 1/1/1 2/2/1 4/3/2 3/4/2
f 3/4/2 4/3/2 6/5/3 5/6/3
f 5/6/3 6/5/3 8/7/4 7/8/4
f 7/8/4 8/7/4 10/9/5 9/10/5
f 9/10/5 10/9/5 12/11/6 11/12/6
f 11/12/6 12/11/6 14/13/7 13/14/7
f 13/15/7 14/16/7 16/17/8 15/18/8
f 15/18/8 16/17/8 18/19/9 17/20/9
f 17/20/9 18/19/9 20/21/10 19/22/10
f 19/22/10 20/21/10 22/23/11 21/24/11
f 21/24/11 22/23/11 24/25/12 23/26/12
f 23/26/12 24/25/12 26/27/13 25/28/13
f 25/28/13 26/27/13 28/29/14 27/30/14
f 27/30/14 28/29/14 30/31/15 29/32/15
f 29/33/15 30/34/15 32/35/16 31/36/16
f 31/36/16 32/35/16 34/37/17 33/38/17
f 33/38/17 34/37/17 36/39/18 35/40/18
f 35/40/18 36/39/18 38/41/19 37/42/19
f 37/42/19 38/41/19 40/43/20 39/44/20
f 39/44/20 40/43/20 42/45/21 41/46/21
f 41/46/21 42/45/21 44/47/22 43/48/22
f 43/49/22 44/50/22 46/51/23 45/52/23
f 45/52/23 46/51/23 48/53/24 47/54/24
f 47/54/24 48/53/24 50/55/25 49/56/25
f 49/56/25 50/55/25 52/57/26 51/58/26
f 51/58/26 52/57/26 54/59/27 53/60/27
f 53/60/27 54/59/27 56/61/28 55/62/28
f 55/62/28 56/61/28 58/63/29 57/64/29
f 57/64/29 58/63/29 60/65/30 59/66/30
f 59/67/30 60/68/30 62/69/31 61/70/31
f 14/71/32 12/72/32 70/73/32 71/74/32
f 61/70/31 62/69/31 64/75/33 63/76/33
f 63/76/33 64/75/33 2/2/1 1/1/1
f 1/77/34 3/78/34 5/79/34 7/80/34 9/81/34 11/82/34 13/83/34 15/84/34 17/85/34 19/86/34 21/87/34 23/88/34 25/89/34 27/90/34 29/91/34 31/92/34 33/93/34 35/94/34 37/95/34 39/96/34 41/97/34 43/98/34 45/99/34 47/100/34 49/101/34 51/102/34 53/103/34 55/104/34 57/105/34 59/106/34 61/107/34 63/108/34
f 94/109/35 93/110/36 125/111/36 126/112/35
f 32/113/32 30/114/32 79/115/32 80/116/32
f 50/117/32 48/118/32 88/119/32 89/120/32
f 6/121/32 4/122/32 65/123/32 67/124/32
f 24/125/32 22/126/32 75/127/32 76/128/32
f 42/129/32 40/130/32 84/131/32 85/132/32
f 60/133/32 58/134/32 93/135/32 94/136/32
f 16/137/32 14/71/32 71/74/32 72/138/32
f 34/139/32 32/113/32 80/116/32 81/140/32
f 52/141/32 50/117/32 89/120/32 90/142/32
f 8/143/32 6/121/32 67/124/32 68/144/32
f 26/145/32 24/125/32 76/128/32 77/146/32
f 44/147/32 42/129/32 85/132/32 86/148/32
f 62/149/32 60/133/32 94/136/32 95/150/32
f 18/151/32 16/137/32 72/138/32 73/152/32
f 36/153/32 34/139/32 81/140/32 82/154/32
f 54/155/32 52/141/32 90/142/32 91/156/32
f 10/157/32 8/143/32 68/144/32 69/158/32
f 28/159/32 26/145/32 77/146/32 78/160/32
f 46/161/32 44/147/32 86/148/32 87/162/32
f 64/163/32 62/149/32 95/150/32 96/164/32
f 20/165/32 18/151/32 73/152/32 74/166/32
f 38/167/32 36/153/32 82/154/32 83/168/32
f 56/169/32 54/155/32 91/156/32 92/170/32
f 12/72/32 10/157/32 69/158/32 70/73/32
f 30/114/32 28/159/32 78/160/32 79/115/32
f 48/118/32 46/161/32 87/162/32 88/119/32
f 4/122/32 2/171/32 66/172/32 65/123/32
f 2/171/32 64/163/32 96/164/32 66/172/32
f 22/126/32 20/165/32 74/166/32 75/127/32
f 40/130/32 38/167/32 83/168/32 84/131/32
f 58/134/32 56/169/32 92/170/32 93/135/32
f 97/173/32 98/174/32 128/175/32 127/176/32 126/177/32 125/178/32 124/179/32 123/180/32 122/181/32 121/182/32 120/183/32 119/184/32 118/185/32 117/186/32 116/187/32 115/188/32 114/189/32 113/190/32 112/191/32 111/192/32 110/193/32 109/194/32 108/195/32 107/196/32 106/197/32 105/198/32 104/199/32 103/200/32 102/201/32 101/202/32 100/203/32 99/204/32
f 81/205/37 80/206/38 112/207/38 113/208/37
f 68/209/39 67/210/40 99/211/40 100/212/39
f 95/213/41 94/109/35 126/112/35 127/214/41
f 82/215/42 81/205/37 113/208/37 114/216/42
f 69/217/43 68/209/39 100/212/39 101/218/43
f 96/219/44 95/220/41 127/221/41 128/222/44
f 83/223/45 82/215/42 114/216/42 115/224/45
f 70/225/46 69/217/43 101/218/43 102/226/46
f 66/227/47 96/219/44 128/222/44 98/228/47
f 84/229/48 83/223/45 115/224/45 116/230/48
f 71/231/49 70/225/46 102/226/46 103/232/49
f 85/233/50 84/229/48 116/230/48 117/234/50
f 72/235/51 71/236/49 103/237/49 104/238/51
f 86/239/52 85/233/50 117/234/50 118/240/52
f 73/241/53 72/235/51 104/238/51 105/242/53
f 87/243/54 86/244/52 118/245/52 119/246/54
f 74/247/55 73/241/53 105/242/53 106/248/55
f 88/249/56 87/243/54 119/246/54 120/250/56
f 75/251/57 74/247/55 106/248/55 107/252/57
f 89/253/58 88/249/56 120/250/56 121/254/58
f 76/255/59 75/251/57 107/252/57 108/256/59
f 90/257/60 89/253/58 121/254/58 122/258/60
f 77/259/61 76/255/59 108/256/59 109/260/61
f 91/261/62 90/257/60 122/258/60 123/262/62
f 78/263/63 77/259/61 109/260/61 110/264/63
f 92/265/64 91/261/62 123/262/62 124/266/64
f 79/267/65 78/263/63 110/264/63 111/268/65
f 65/269/66 66/227/47 98/228/47 97/270/66
f 93/110/36 92/265/64 124/266/64 125/111/36
f 80/206/38 79/271/65 111/272/65 112/207/38
f 67/210/40 65/269/66 97/270/66 99/211/40
