# Blender 4.5.0
# www.blender.org
mtllib tripo_convert_6c0af524-1ab1-4d38-9784-7704c6f1cfff.mtl
o tripo_node_6c0af524-1ab1-4d38-9784-7704c6f1cfff
v 0.188688 0.098690 -0.476319
v 0.169350 0.020561 -0.377518
v 0.211934 0.043447 -0.420464
v 0.183081 0.042458 -0.120510
v 0.164379 -0.026692 -0.179909
v 0.162266 -0.119854 -0.401380
v 0.159523 -0.095432 -0.113776
v 0.170319 -0.111303 -0.118808
v 0.251762 -0.181961 -0.027465
v 0.252116 -0.187409 -0.029194
v 0.251841 -0.165671 -0.170897
v 0.257764 -0.186768 -0.174194
v 0.251799 -0.182960 -0.173743
v 0.218801 -0.140346 -0.420072
v 0.251487 -0.170669 -0.392052
v 0.256288 -0.229147 -0.303594
v 0.188114 -0.448713 -0.485311
v 0.254835 -0.392618 -0.298839
v 0.252972 -0.371664 -0.165929
v 0.251851 -0.256319 0.012411
v 0.251932 -0.185630 -0.169386
v 0.251683 -0.206831 0.077380
v 0.252241 -0.251288 0.008103
v 0.255634 -0.232706 0.119891
v 0.251754 -0.253796 0.029955
v 0.256151 -0.227908 0.068905
v 0.251854 -0.223505 0.092778
v 0.251723 -0.226485 0.070454
v 0.257996 -0.192495 0.066382
v 0.251680 -0.195151 0.083300
v 0.253673 -0.284495 0.071498
v 0.253146 -0.392051 0.006372
v 0.239531 -0.348403 0.299727
v 0.210923 -0.447405 0.453244
v 0.218337 -0.320212 0.396998
v 0.225321 -0.278281 0.345446
v 0.252676 -0.322696 0.335682
v 0.255107 -0.347001 0.364966
v 0.296933 -0.061917 0.322672
v 0.270073 0.000176 0.386241
v 0.255107 0.035962 0.302887
v 0.198543 0.042603 0.180019
v 0.218826 -0.130294 0.312641
v 0.219378 -0.139857 0.026351
v 0.213194 -0.105557 0.214956
v 0.166591 -0.052341 0.126823
v 0.151887 0.044855 0.061308
v 0.153450 0.037267 0.065049
v 0.198666 0.098051 0.465842
v 0.160970 -0.030385 0.210523
v -0.159968 0.122867 0.372000
v -0.121200 0.131087 0.316250
v -0.064299 0.113527 0.336216
v -0.271403 0.099511 0.473013
v -0.276250 -0.461568 0.463675
v -0.276837 -0.444040 -0.481451
v -0.274295 0.100643 -0.467539
v 0.144853 0.103765 -0.479698
v 0.139627 0.113465 -0.428344
v 0.192514 0.107780 -0.429573
v 0.197552 0.059827 -0.487700
v 0.146826 0.063689 -0.499822
v 0.159410 -0.010367 -0.379992
v 0.181252 -0.009668 -0.437526
v 0.184607 0.042376 -0.409538
v 0.217646 0.068823 -0.304405
v 0.182408 0.042501 -0.269143
v 0.217869 -0.009239 -0.442238
v 0.195577 0.003857 -0.489353
v 0.215748 0.078815 -0.141851
v 0.215912 0.077873 -0.010217
v 0.187291 0.042539 0.000697
v 0.163031 -0.030583 -0.205758
v 0.159487 -0.017391 -0.265419
v 0.159514 0.013515 -0.300469
v 0.159791 -0.103850 -0.344808
v 0.192159 -0.120834 -0.330005
v 0.208101 -0.121013 -0.397173
v 0.159899 -0.082481 -0.419533
v 0.164111 -0.065055 -0.359075
v 0.159636 -0.090126 -0.093526
v 0.159952 -0.075069 -0.152792
v 0.177266 -0.120818 -0.019475
v 0.207340 -0.121511 -0.030492
v 0.211926 -0.122852 -0.125373
v 0.159394 -0.095973 -0.013341
v 0.252560 -0.178678 -0.027098
v 0.252827 -0.179548 -0.026129
v 0.251885 -0.176398 -0.175847
v 0.254571 -0.178806 -0.176744
v 0.253100 -0.173036 -0.213460
v 0.239602 -0.142154 -0.205722
v 0.234730 -0.141215 -0.120489
v 0.251301 -0.159334 -0.121978
v 0.252938 -0.180477 -0.178979
v 0.254716 -0.181209 -0.178471
v 0.255985 -0.178890 -0.172863
v 0.256507 -0.179221 -0.172479
v 0.256324 -0.181968 -0.175525
v 0.254939 -0.178227 -0.173634
v 0.250783 -0.155104 -0.359475
v 0.229847 -0.297246 -0.442185
v 0.193400 -0.311723 -0.490546
v 0.192750 -0.126243 -0.491118
v 0.256148 -0.230016 -0.309765
v 0.254279 -0.225877 -0.307460
v 0.256604 -0.229209 -0.303334
v 0.253052 -0.225669 -0.300107
v 0.254749 -0.226645 -0.297398
v 0.200590 -0.459706 -0.458201
v 0.129617 -0.473360 -0.461868
v 0.130373 -0.449684 -0.491890
v 0.132035 -0.404108 -0.499593
v 0.195730 -0.407494 -0.488961
v 0.217006 -0.411430 -0.453071
v 0.256545 -0.393175 -0.297615
v 0.256395 -0.391836 -0.297703
v 0.253800 -0.392647 -0.300225
v 0.214164 -0.443426 0.045932
v 0.251775 -0.406945 -0.190621
v 0.253379 -0.193185 -0.248821
v 0.252661 -0.286129 0.028157
v 0.251690 -0.204456 0.067672
v 0.256797 -0.242679 0.115055
v 0.251748 -0.231938 0.084592
v 0.254452 -0.242690 0.116772
v 0.252690 -0.243783 0.116179
v 0.251773 -0.210102 0.097553
v 0.251697 -0.274248 0.135003
v 0.253483 -0.392340 0.328735
v 0.214720 -0.414454 0.463542
v 0.191018 -0.421551 0.492332
v 0.191310 -0.461983 0.469238
v 0.193131 -0.468658 0.403922
v 0.215822 -0.438789 0.390038
v 0.215489 -0.348892 0.461284
v 0.218208 -0.402366 0.399395
v 0.297009 -0.021555 0.317393
v 0.296852 0.000528 0.345789
v 0.296406 -0.073179 0.355031
v 0.252930 -0.084104 0.279810
v 0.263667 -0.026570 0.277333
v 0.265655 -0.074906 0.389830
v 0.239311 0.021066 0.415954
v 0.237244 -0.068302 0.430566
v 0.205321 -0.032180 0.214583
v 0.214573 0.081706 0.178966
v 0.216167 0.076029 0.321325
v 0.218330 -0.174285 0.376169
v 0.227294 -0.171744 0.214930
v 0.178429 -0.120806 0.085605
v 0.182032 -0.120853 0.158635
v 0.217477 -0.126964 0.150295
v 0.159808 -0.090753 0.189716
v 0.159755 -0.086459 0.103914
v 0.154723 0.038411 0.062842
v 0.151613 0.037668 0.061063
v 0.152441 0.036820 0.062977
v 0.208521 0.071189 0.474565
v 0.217216 0.071192 0.417462
v 0.200166 0.102365 0.421688
v 0.170772 0.105728 0.476509
v 0.177648 0.076700 0.496438
v 0.167133 0.113310 0.425529
v -0.152236 0.113464 0.428618
v -0.040188 0.113491 0.418333
v -0.142337 0.143667 0.316274
v -0.218275 0.113510 0.374535
v -0.228219 0.113404 0.437217
v -0.053746 0.113531 0.218618
v -0.138229 0.113544 0.231541
v -0.280364 0.075783 0.482788
v -0.234777 0.075801 0.498656
v -0.233271 0.106058 0.476587
v -0.275767 0.106159 0.441951
v -0.297658 0.076504 0.444672
v -0.248532 -0.468386 0.472251
v -0.253483 -0.435067 0.496881
v -0.287771 -0.434874 0.473324
v -0.298291 -0.432509 0.413325
v -0.278695 -0.465067 0.413597
v -0.244399 -0.476362 0.412702
v -0.246706 -0.451291 -0.490725
v -0.249647 -0.472710 -0.462732
v -0.285936 -0.453362 -0.460042
v -0.277648 -0.407264 -0.487642
v -0.241188 -0.405656 -0.499450
v -0.296389 -0.407677 -0.460331
v -0.280309 0.103026 -0.436516
v -0.249810 0.113114 -0.435721
v -0.251479 0.106269 -0.475307
v -0.286803 0.072134 -0.476752
v -0.298793 0.068633 -0.436354
v -0.258892 0.072876 -0.497193
v 0.152814 0.044853 0.061792
v 0.151206 0.044243 0.058553
v 0.151855 0.043726 0.058550
v -0.218264 0.070076 -0.499474
v -0.218080 0.019930 -0.499987
v -0.260003 0.022861 -0.497535
v -0.290318 0.023246 -0.473316
v -0.216266 0.105785 -0.476834
v -0.212904 0.113431 -0.433141
v -0.107619 0.113476 -0.427337
v -0.114384 0.106038 -0.476275
v -0.122317 0.066458 -0.499557
v 0.055298 0.064054 -0.499720
v 0.049617 0.007953 -0.500000
v -0.133094 0.011778 -0.500000
v 0.059106 0.105481 -0.477165
v 0.061680 0.113488 -0.424876
v -0.097264 0.113523 -0.354344
v 0.061520 0.113517 -0.337880
v 0.128508 0.113519 -0.327773
v 0.061552 0.113508 -0.168984
v 0.124665 0.113506 -0.160700
v 0.180189 0.112106 -0.153069
v 0.185487 0.110942 -0.318305
v 0.123042 0.113492 0.007384
v 0.177392 0.112478 -0.001568
v 0.126181 0.113527 0.185724
v 0.180271 0.112135 0.178358
v 0.148490 0.113493 0.334010
v 0.193213 0.107514 0.328044
v 0.055022 0.113521 0.198531
v 0.074031 0.113533 0.339394
v 0.100376 0.113478 0.423843
v -0.023834 0.109096 0.470567
v 0.107143 0.108056 0.472644
v -0.013077 0.075351 0.498847
v 0.111870 0.077036 0.498465
v 0.000152 0.027389 0.499997
v 0.117331 0.029256 0.499995
v 0.176659 0.027954 0.498398
v 0.123949 -0.056376 0.499997
v 0.175967 -0.060370 0.498601
v 0.211901 -0.061389 0.469366
v 0.211687 0.023033 0.470395
v 0.179492 -0.218796 0.497519
v 0.211634 -0.209682 0.470463
v 0.218121 -0.194453 0.423620
v 0.187912 -0.360845 0.494263
v 0.147893 -0.366442 0.499708
v 0.156140 -0.425613 0.499421
v 0.133216 -0.227874 0.499789
v 0.044048 -0.240377 0.499757
v 0.075064 -0.369646 0.499697
v 0.019574 -0.052703 0.499996
v -0.150990 -0.055777 0.499995
v -0.119633 -0.254675 0.499746
v -0.158780 0.030494 0.499995
v -0.232661 0.035566 0.499912
v -0.224228 -0.062137 0.499965
v -0.157737 0.074770 0.498732
v -0.154090 0.107756 0.473306
v -0.273713 -0.067095 0.490539
v -0.266317 -0.259312 0.494934
v -0.214665 -0.257736 0.499775
v -0.278780 0.036582 0.486743
v -0.298793 0.035293 0.446389
v -0.298569 -0.068830 0.449379
v -0.299346 -0.069037 0.391899
v -0.299341 -0.271199 0.398113
v -0.297413 -0.263421 0.456634
v -0.299327 0.029913 0.391699
v -0.299341 0.018609 0.251961
v -0.299328 -0.076399 0.260914
v -0.297828 0.074936 0.389373
v -0.298347 0.072388 0.245411
v -0.298883 0.066303 0.038298
v -0.299319 0.009930 0.039720
v -0.271460 0.108691 0.383177
v -0.267998 0.110291 0.240982
v -0.277654 0.104990 0.037047
v -0.282189 0.101321 -0.181340
v -0.299000 0.062839 -0.182125
v -0.201812 0.113513 0.238337
v -0.230452 0.113442 0.035574
v -0.242570 0.113359 -0.180017
v -0.247394 0.113222 -0.365065
v -0.283183 0.100644 -0.365434
v -0.170727 0.113518 0.032721
v -0.188151 0.113503 -0.178649
v -0.202916 0.113512 -0.363228
v -0.082041 0.113520 -0.175345
v -0.067584 0.113516 0.026417
v 0.064146 0.113507 0.015725
v -0.298960 0.063697 -0.365878
v -0.299285 0.021340 -0.432518
v -0.299325 0.014035 -0.364785
v -0.299339 0.006775 -0.181913
v -0.299340 -0.107447 -0.359697
v -0.299323 -0.100303 -0.181352
v -0.299333 -0.089437 0.041472
v -0.299427 -0.304174 -0.177729
v -0.299584 -0.292534 0.044706
v -0.299502 -0.280930 0.269597
v -0.299715 -0.388032 0.045941
v -0.299585 -0.384736 0.268896
v -0.299369 -0.386692 0.409916
v -0.297924 -0.434358 0.266100
v -0.294011 -0.388278 0.466410
v -0.258450 -0.388256 0.497736
v -0.208772 -0.434633 0.497952
v -0.210311 -0.385463 0.499726
v -0.088194 -0.433855 0.498224
v -0.104383 -0.375907 0.499701
v 0.083072 -0.430172 0.498858
v -0.073701 -0.472611 0.463701
v 0.089664 -0.471704 0.465651
v 0.157387 -0.470086 0.469693
v 0.157373 -0.476504 0.405419
v 0.098581 -0.476668 0.402933
v 0.113196 -0.476670 0.268887
v 0.165066 -0.476377 0.261931
v -0.056013 -0.476701 0.401675
v -0.022007 -0.476690 0.275187
v 0.031205 -0.476682 0.049004
v 0.138294 -0.476673 0.050402
v -0.196902 -0.476659 0.408565
v -0.174824 -0.476680 0.272334
v -0.147377 -0.476663 0.048941
v -0.108347 -0.476665 -0.174033
v 0.069282 -0.476658 -0.175072
v -0.231962 -0.476562 0.268194
v -0.218770 -0.476634 0.048637
v -0.206665 -0.476663 -0.173004
v -0.200038 -0.476674 -0.357056
v -0.081278 -0.476666 -0.354211
v -0.266122 -0.472380 0.047259
v -0.257512 -0.475148 -0.171470
v -0.252628 -0.475851 -0.356662
v -0.250906 -0.476007 -0.427350
v -0.199740 -0.476605 -0.425421
v -0.293884 -0.446121 -0.172133
v -0.291553 -0.450303 -0.356722
v -0.289720 -0.453494 -0.426902
v -0.299799 -0.400486 -0.358104
v -0.299358 -0.405561 -0.425678
v -0.299518 -0.311806 -0.358611
v -0.299297 -0.311654 -0.422668
v -0.295370 -0.310801 -0.463041
v -0.270720 -0.311280 -0.492632
v -0.299298 -0.113278 -0.425308
v -0.293103 -0.116699 -0.468019
v -0.263562 -0.117946 -0.496070
v -0.219234 -0.117248 -0.499877
v -0.229408 -0.313512 -0.499570
v -0.171735 -0.316499 -0.499631
v -0.188129 -0.400718 -0.499565
v -0.144437 -0.116150 -0.499888
v 0.027739 -0.119237 -0.499906
v 0.001972 -0.316760 -0.499642
v 0.133757 -0.315613 -0.499652
v -0.018214 -0.397282 -0.499589
v 0.137804 -0.124135 -0.499888
v 0.143301 0.007624 -0.499960
v -0.033130 -0.444293 -0.494697
v -0.194730 -0.446344 -0.493748
v -0.046620 -0.471893 -0.465629
v -0.198060 -0.472419 -0.464368
v -0.060004 -0.476625 -0.422678
v 0.122836 -0.476599 -0.422892
v 0.109264 -0.476648 -0.351371
v 0.200474 -0.463180 -0.420774
v 0.188748 -0.470936 -0.346942
v 0.162542 -0.476392 -0.173886
v 0.236160 -0.430965 -0.340081
v 0.209834 -0.451659 -0.174254
v 0.185635 -0.472181 0.052972
v 0.202185 -0.461391 0.254744
v 0.218124 -0.410656 0.241115
v 0.250396 -0.421541 -0.412481
v 0.255920 -0.328514 -0.391813
v 0.252591 -0.280585 -0.331920
v -0.300899 -0.394825 -0.175087
v -0.296598 -0.439818 0.046598
v -0.273946 -0.468423 0.265813
v -0.205020 -0.470937 0.467687
v 0.159531 -0.017007 0.141764
v 0.169040 -0.054708 0.015676
v 0.159544 -0.017941 -0.008088
v 0.163180 -0.058663 -0.085788
v 0.159481 -0.015062 -0.107491
v 0.159555 0.000607 0.173339
v 0.218193 -0.283488 0.279244
v 0.246259 -0.267604 0.210317
v 0.245904 -0.344136 0.210163
v 0.252566 -0.250628 0.013371
v 0.252248 -0.198852 -0.273131
v 0.255423 -0.178300 -0.307707
v 0.248579 -0.147575 -0.282368
v 0.218977 -0.136985 -0.312355
v 0.217054 -0.122182 -0.211050
v 0.179479 -0.120793 -0.216405
v 0.159696 -0.080717 -0.230899
v 0.160024 -0.053610 -0.271488
v 0.254686 -0.178863 -0.176668
v 0.253532 -0.177334 -0.174671
v 0.253359 -0.180340 -0.179044
v 0.250525 -0.152565 -0.044829
v 0.253072 -0.176277 -0.028019
v 0.253268 -0.176333 -0.028080
v 0.157679 -0.008163 -0.171057
v 0.158308 -0.041655 -0.128063
v 0.254341 -0.269480 0.002795
v 0.251913 -0.182493 -0.029255
v 0.252051 -0.180688 -0.028462
v 0.159515 -0.018363 -0.116369
v 0.159709 -0.029358 -0.121244
v 0.159464 -0.019823 -0.120598
v 0.160173 -0.029168 -0.115544
v 0.159523 -0.021599 -0.115951
v 0.159453 -0.022073 -0.118388
v 0.159412 -0.019742 -0.118538
v 0.159574 -0.026702 -0.120963
v 0.159548 -0.027102 -0.118242
v 0.159610 -0.029644 -0.118806
v 0.159480 -0.022151 -0.120690
v 0.159803 -0.027169 -0.115708
v 0.159498 -0.024549 -0.118091
v 0.159596 -0.024386 -0.115752
v 0.159497 -0.024521 -0.120783
v 0.252388 -0.188460 -0.128768
v 0.252496 -0.184043 -0.117275
v 0.258265 -0.185319 -0.118045
v 0.258062 -0.188471 -0.126896
v 0.255946 -0.180410 -0.128554
v 0.253858 -0.191597 -0.114547
v 0.257049 -0.194160 -0.118552
v 0.252460 -0.191128 -0.126602
v 0.251947 -0.187496 -0.124121
v 0.252106 -0.185146 -0.127286
v 0.253828 -0.188065 -0.131091
v 0.254888 -0.192697 -0.128688
v 0.253051 -0.182903 -0.129680
v 0.252090 -0.186466 -0.118434
v 0.252538 -0.187832 -0.115348
v 0.253592 -0.183577 -0.115283
v 0.252688 -0.181502 -0.119665
v 0.252049 -0.184047 -0.121784
v 0.254041 -0.180073 -0.118830
v 0.257687 -0.183906 -0.115902
v 0.257456 -0.188471 -0.114206
v 0.258359 -0.188593 -0.117579
v 0.258288 -0.185013 -0.121683
v 0.257866 -0.181642 -0.120041
v 0.258411 -0.188737 -0.122482
v 0.257909 -0.185276 -0.126653
v 0.257890 -0.192055 -0.122855
v 0.257296 -0.190728 -0.128466
v 0.256466 -0.186367 -0.130371
v 0.252643 -0.178596 -0.129663
v 0.253693 -0.178170 -0.128111
v 0.256571 -0.179016 -0.122402
v 0.257533 -0.180966 -0.124553
v 0.252289 -0.191602 -0.116863
v 0.254278 -0.194479 -0.117517
v 0.256266 -0.192321 -0.114914
v 0.254714 -0.188365 -0.113391
v 0.252834 -0.193726 -0.122115
v 0.256001 -0.194454 -0.122852
v 0.258014 -0.192027 -0.117708
v 0.251900 -0.189902 -0.120481
v 0.255847 -0.183237 -0.114584
v 0.256211 -0.179811 -0.118860
v 0.254504 -0.178196 -0.123755
v 0.252657 -0.178408 -0.122465
v 0.252197 -0.181580 -0.125300
v 0.254143 -0.176942 -0.033749
v 0.253954 -0.177095 -0.033859
v 0.254026 -0.177094 -0.034164
v 0.254211 -0.176941 -0.034054
v 0.255649 -0.174401 -0.172655
v 0.254643 -0.179893 -0.168937
v 0.254212 -0.177828 -0.175061
v 0.252862 -0.178446 -0.173314
v 0.255133 -0.175802 -0.171248
v 0.254661 -0.179478 -0.177592
v 0.254744 -0.181218 -0.179138
v 0.254619 -0.181481 -0.177139
v 0.254823 -0.178256 -0.177492
v 0.254805 -0.176542 -0.166150
v 0.255402 -0.174989 -0.173068
v 0.255362 -0.175966 -0.171595
v 0.254863 -0.178694 -0.169749
v 0.255001 -0.175673 -0.168780
v 0.253404 -0.177815 -0.172821
v 0.253748 -0.177415 -0.172508
v 0.254565 -0.176985 -0.174469
v 0.254451 -0.177995 -0.176012
v 0.253931 -0.179015 -0.176107
v 0.253414 -0.178716 -0.174889
v 0.255075 -0.175745 -0.170160
v 0.255118 -0.177300 -0.170693
v 0.255129 -0.175641 -0.173525
v 0.254666 -0.176346 -0.171673
v 0.254731 -0.179705 -0.177333
v 0.254741 -0.178198 -0.177164
v 0.254852 -0.176301 -0.173989
v 0.254206 -0.176881 -0.172091
v 0.254972 -0.186629 -0.312147
v 0.255525 -0.182988 -0.312805
v 0.255585 -0.184522 -0.312922
v 0.255563 -0.184278 -0.312738
v 0.254479 -0.186580 -0.312453
v 0.255579 -0.185837 -0.313265
v 0.255609 -0.184005 -0.313449
v 0.254984 -0.187944 -0.312582
v 0.255438 -0.187230 -0.313380
v 0.254010 -0.188179 -0.311629
v 0.254513 -0.188688 -0.311752
v 0.253084 -0.188824 -0.311801
v 0.255514 -0.182225 -0.313003
v 0.255331 -0.180844 -0.311115
v 0.255429 -0.182297 -0.311802
v 0.255529 -0.181444 -0.313578
v 0.255390 -0.179954 -0.311651
v 0.255288 -0.178908 -0.310275
v 0.255207 -0.179362 -0.309956
v 0.255235 -0.178638 -0.309799
v 0.255606 -0.183331 -0.313700
v 0.255681 -0.185167 -0.313819
v 0.255745 -0.186745 -0.313921
v 0.253305 -0.189403 -0.311826
v 0.253689 -0.188957 -0.311292
v 0.254127 -0.189296 -0.311073
v 0.254103 -0.190581 -0.310992
v 0.253732 -0.190517 -0.311874
v 0.253903 -0.190965 -0.311894
v 0.254219 -0.191053 -0.311177
v 0.254110 -0.191504 -0.311917
v 0.254347 -0.191572 -0.311380
v 0.254319 -0.192050 -0.311940
v 0.254472 -0.192079 -0.311579
v 0.254406 -0.192279 -0.311950
v 0.255483 -0.174941 -0.350563
v 0.254584 -0.178481 -0.352691
v 0.255191 -0.175567 -0.348298
v 0.254038 -0.179294 -0.350523
v 0.255327 -0.175408 -0.349525
v 0.255256 -0.175513 -0.349560
v 0.255429 -0.175153 -0.350690
v 0.254669 -0.178145 -0.352489
v 0.254386 -0.178586 -0.351419
v 0.254306 -0.178894 -0.351588
v 0.255080 -0.175926 -0.348512
v 0.254123 -0.179019 -0.350359
v 0.254463 -0.178283 -0.351233
v 0.254216 -0.178716 -0.350178
v 0.254539 -0.177980 -0.351046
v 0.254311 -0.178409 -0.349995
v 0.254615 -0.177678 -0.350859
v 0.254407 -0.178102 -0.349811
v 0.254691 -0.177376 -0.350670
v 0.254502 -0.177794 -0.349628
v 0.254773 -0.177071 -0.350483
v 0.254597 -0.177486 -0.349443
v 0.254869 -0.176762 -0.350304
v 0.254693 -0.177176 -0.349259
v 0.254964 -0.176454 -0.350123
v 0.254789 -0.176866 -0.349073
v 0.255060 -0.176146 -0.349941
v 0.254885 -0.176556 -0.348888
v 0.255155 -0.175839 -0.349759
v 0.254981 -0.176245 -0.348703
v 0.255355 -0.175445 -0.350866
v 0.255279 -0.175745 -0.351046
v 0.255202 -0.176046 -0.351227
v 0.255126 -0.176346 -0.351408
v 0.255050 -0.176647 -0.351588
v 0.254974 -0.176946 -0.351768
v 0.254898 -0.177244 -0.351948
v 0.254822 -0.177543 -0.352127
v 0.254746 -0.177842 -0.352307
v 0.255837 -0.227897 -0.308174
v 0.255545 -0.228900 -0.309195
v 0.255513 -0.228818 -0.309062
v 0.256017 -0.228671 -0.308451
v 0.255458 -0.229043 -0.309524
v 0.255526 -0.228814 -0.309046
v 0.256250 -0.228604 -0.308170
v 0.255837 -0.227553 -0.307348
v 0.255193 -0.226673 -0.307944
v 0.255188 -0.226289 -0.307095
v 0.254964 -0.225834 -0.306908
v 0.254890 -0.225857 -0.307371
v 0.255219 -0.226021 -0.306222
v 0.255071 -0.225801 -0.306237
v 0.255266 -0.225929 -0.305662
v 0.255159 -0.225773 -0.305684
v 0.255333 -0.225860 -0.305075
v 0.255248 -0.225745 -0.305122
v 0.255361 -0.225771 -0.304603
v 0.255339 -0.225717 -0.304554
v 0.255393 -0.225662 -0.304053
v 0.255425 -0.225690 -0.304011
v 0.255427 -0.225556 -0.303499
v 0.255520 -0.225660 -0.303420
v 0.255480 -0.225467 -0.302803
v 0.255294 -0.226099 -0.302632
v 0.255311 -0.225804 -0.301873
v 0.254976 -0.226693 -0.301666
v 0.255077 -0.226161 -0.300913
v 0.254657 -0.227288 -0.300700
v 0.254870 -0.226394 -0.299634
v 0.254509 -0.227605 -0.299175
v 0.255101 -0.225943 -0.298133
v 0.254760 -0.227253 -0.296758
v 0.255401 -0.224783 -0.300093
v 0.255428 -0.224687 -0.299452
v 0.255359 -0.224934 -0.301103
v 0.255323 -0.225065 -0.301983
v 0.255287 -0.225194 -0.302844
v 0.255276 -0.225344 -0.303483
v 0.255270 -0.225486 -0.304028
v 0.255264 -0.225628 -0.304570
v 0.255257 -0.225787 -0.305175
v 0.255254 -0.226067 -0.306187
v 0.255306 -0.246063 -0.344354
v 0.255724 -0.243270 -0.340244
v 0.253401 -0.244806 -0.341654
v 0.256973 -0.243454 -0.339403
v 0.254784 -0.245719 -0.343615
v 0.255145 -0.245894 -0.342436
v 0.255534 -0.246144 -0.342803
v 0.255747 -0.244080 -0.340433
v 0.256025 -0.244127 -0.340247
v 0.255985 -0.243309 -0.340068
v 0.253990 -0.244583 -0.341282
v 0.254171 -0.244983 -0.341329
v 0.253699 -0.245002 -0.342076
v 0.256674 -0.243410 -0.339604
v 0.256481 -0.243983 -0.339830
v 0.256376 -0.243680 -0.339779
v 0.255960 -0.244254 -0.340183
v 0.255788 -0.243903 -0.340149
v 0.256465 -0.243380 -0.339745
v 0.256417 -0.244118 -0.339967
v 0.256167 -0.244604 -0.340200
v 0.255546 -0.244864 -0.340600
v 0.255363 -0.244487 -0.340562
v 0.256281 -0.244163 -0.340075
v 0.256334 -0.244982 -0.340245
v 0.255752 -0.245290 -0.340642
v 0.255182 -0.245591 -0.341030
v 0.254959 -0.245177 -0.341001
v 0.256093 -0.244989 -0.340418
v 0.255878 -0.245584 -0.340679
v 0.255372 -0.245941 -0.341055
v 0.254784 -0.245662 -0.342080
v 0.255793 -0.245694 -0.340811
v 0.255729 -0.246214 -0.341477
v 0.255770 -0.244890 -0.340623
v 0.254405 -0.245469 -0.343078
v 0.254041 -0.245228 -0.342561
v 0.254422 -0.245427 -0.341679
v 0.254764 -0.244722 -0.340943
v 0.254596 -0.244354 -0.340901
v 0.255192 -0.244128 -0.340525
v 0.256238 -0.243346 -0.339898
v 0.254336 -0.378068 -0.267309
v 0.253388 -0.379867 -0.267909
v 0.254937 -0.379249 -0.267745
v 0.253421 -0.241316 -0.070461
v 0.252090 -0.235259 -0.071343
v 0.252607 -0.234299 -0.083986
v 0.251837 -0.231401 -0.078224
v 0.255833 -0.241648 -0.070846
v 0.257259 -0.237968 -0.082513
v 0.257833 -0.231104 -0.080482
v 0.258069 -0.231640 -0.073389
v 0.252629 -0.241419 -0.073314
v 0.255617 -0.242328 -0.073691
v 0.253512 -0.238713 -0.068971
v 0.252043 -0.238026 -0.072287
v 0.256957 -0.239192 -0.069263
v 0.253643 -0.234716 -0.068387
v 0.253196 -0.229461 -0.071599
v 0.251904 -0.232961 -0.074415
v 0.251804 -0.236507 -0.076348
v 0.252103 -0.237247 -0.082304
v 0.251824 -0.233883 -0.080275
v 0.252760 -0.230710 -0.082792
v 0.255840 -0.234285 -0.085183
v 0.254973 -0.239114 -0.084156
v 0.255960 -0.229353 -0.082697
v 0.252859 -0.227858 -0.078366
v 0.257863 -0.239382 -0.073427
v 0.257698 -0.239344 -0.078237
v 0.255007 -0.242097 -0.078805
v 0.257907 -0.234740 -0.081994
v 0.258312 -0.235358 -0.077341
v 0.256305 -0.227328 -0.077614
v 0.258002 -0.230910 -0.076954
v 0.258248 -0.235238 -0.072969
v 0.256732 -0.229122 -0.071136
v 0.257153 -0.234686 -0.068661
v 0.252208 -0.240382 -0.077958
v 0.251811 -0.241946 -0.128681
v 0.251707 -0.243765 -0.123985
v 0.252751 -0.242699 -0.129087
v 0.253258 -0.244137 -0.127094
v 0.252311 -0.243637 -0.124604
v 0.252048 -0.242972 -0.125743
v 0.251764 -0.242774 -0.126545
v 0.252160 -0.242876 -0.126389
v 0.252347 -0.243055 -0.126630
v 0.252108 -0.242377 -0.127681
v 0.252509 -0.242578 -0.128558
v 0.252859 -0.243349 -0.127763
v 0.253017 -0.243453 -0.128043
v 0.253128 -0.244064 -0.126742
v 0.252688 -0.243260 -0.127397
v 0.252977 -0.243980 -0.126335
v 0.252516 -0.243170 -0.127014
v 0.252808 -0.243886 -0.125880
v 0.252647 -0.243796 -0.125448
v 0.252491 -0.243709 -0.125027
v 0.252174 -0.242410 -0.127826
v 0.252333 -0.242490 -0.128174
v 0.252417 -0.232992 -0.117423
v 0.251784 -0.238710 -0.124139
v 0.252157 -0.239366 -0.117556
v 0.252611 -0.234785 -0.129351
v 0.257614 -0.239305 -0.124150
v 0.257668 -0.238926 -0.117576
v 0.256954 -0.232602 -0.117183
v 0.253519 -0.231874 -0.116071
v 0.253144 -0.229694 -0.119934
v 0.252029 -0.232087 -0.120328
v 0.251861 -0.235427 -0.120623
v 0.252197 -0.235793 -0.116958
v 0.253742 -0.235644 -0.114409
v 0.251784 -0.234801 -0.125082
v 0.252904 -0.241392 -0.126275
v 0.253232 -0.243206 -0.120649
v 0.251864 -0.239595 -0.120640
v 0.253764 -0.241044 -0.115906
v 0.251971 -0.231708 -0.124837
v 0.252797 -0.231357 -0.128823
v 0.254230 -0.231197 -0.131306
v 0.252038 -0.232592 -0.131674
v 0.256072 -0.234725 -0.128670
v 0.256692 -0.241164 -0.126479
v 0.257509 -0.234886 -0.124997
v 0.257742 -0.235328 -0.121041
v 0.257736 -0.239720 -0.120812
v 0.256357 -0.243257 -0.120556
v 0.257500 -0.235511 -0.116886
v 0.255998 -0.235655 -0.114120
v 0.256472 -0.240853 -0.115824
v 0.257037 -0.231849 -0.120797
v 0.255572 -0.231711 -0.115836
v 0.255409 -0.229668 -0.120154
v 0.256686 -0.231474 -0.124988
v 0.255295 -0.229401 -0.124459
v 0.252915 -0.229447 -0.124340
v 0.254120 -0.229355 -0.127938
v 0.253115 -0.229460 -0.127953
v 0.252786 -0.228512 -0.130836
v 0.253880 -0.228730 -0.130285
v 0.255393 -0.230983 -0.128692
v 0.252688 -0.193500 -0.130100
v 0.256186 -0.195755 -0.129941
v 0.254953 -0.194760 -0.130213
v 0.254064 -0.194485 -0.129932
v 0.253061 -0.192912 -0.131103
v 0.253201 -0.194242 -0.129634
v 0.253854 -0.193873 -0.130456
v 0.252152 -0.240664 -0.172174
v 0.252024 -0.231154 -0.171329
v 0.252233 -0.232511 -0.163848
v 0.252124 -0.240032 -0.164766
v 0.257939 -0.240014 -0.174147
v 0.258067 -0.241792 -0.165166
v 0.257694 -0.229184 -0.167414
v 0.257868 -0.236141 -0.174955
v 0.253384 -0.243140 -0.174784
v 0.254249 -0.245420 -0.168565
v 0.252130 -0.241074 -0.168635
v 0.252022 -0.235708 -0.172722
v 0.253047 -0.235187 -0.177513
v 0.252015 -0.235842 -0.168374
v 0.252029 -0.231033 -0.167478
v 0.253671 -0.228237 -0.173089
v 0.253971 -0.227357 -0.166252
v 0.252117 -0.236247 -0.163756
v 0.254602 -0.237178 -0.159927
v 0.254877 -0.230912 -0.161414
v 0.254246 -0.243272 -0.162811
v 0.256586 -0.243052 -0.175841
v 0.256407 -0.234989 -0.178563
v 0.258175 -0.238636 -0.169224
v 0.257695 -0.243833 -0.169111
v 0.258063 -0.233676 -0.170275
v 0.258045 -0.237268 -0.163672
v 0.257994 -0.232164 -0.164702
v 0.257472 -0.229928 -0.172749
v 0.258569 -0.183238 0.115410
v 0.258069 -0.191560 0.114425
v 0.257810 -0.181677 0.104255
v 0.258092 -0.189605 0.106827
v 0.253048 -0.178621 0.107143
v 0.252268 -0.189823 0.105949
v 0.252466 -0.182850 0.116139
v 0.252179 -0.190945 0.114836
v 0.257386 -0.181198 0.118034
v 0.257121 -0.188046 0.119574
v 0.258580 -0.187462 0.115549
v 0.258548 -0.181682 0.111825
v 0.256994 -0.177405 0.112574
v 0.258726 -0.186525 0.111107
v 0.258202 -0.191077 0.110358
v 0.256482 -0.193496 0.116071
v 0.256105 -0.194123 0.110072
v 0.258291 -0.181006 0.107434
v 0.258460 -0.185702 0.106849
v 0.257772 -0.185696 0.103016
v 0.254950 -0.180459 0.102668
v 0.256300 -0.177442 0.106533
v 0.254646 -0.185727 0.101352
v 0.256980 -0.191146 0.104470
v 0.252301 -0.181773 0.105754
v 0.252078 -0.182137 0.111344
v 0.253374 -0.178064 0.112397
v 0.254087 -0.191452 0.103557
v 0.253390 -0.193930 0.110069
v 0.251920 -0.191026 0.110514
v 0.252022 -0.186575 0.111032
v 0.252263 -0.186086 0.105414
v 0.252252 -0.187133 0.116309
v 0.254297 -0.181048 0.118217
v 0.254153 -0.187812 0.119906
v 0.253599 -0.193268 0.116232
v 0.253294 -0.228808 0.008394
v 0.253415 -0.229160 0.008262
v 0.253534 -0.229171 0.008020
v 0.253077 -0.228691 0.008181
v 0.253647 -0.230037 0.007832
v 0.254037 -0.229699 0.007842
v 0.253697 -0.230567 0.007571
v 0.254734 -0.230431 0.007596
v 0.253887 -0.232086 0.006991
v 0.255454 -0.231187 0.007342
v 0.254064 -0.233491 0.006453
v 0.255842 -0.231595 0.007205
v 0.254186 -0.244070 0.117910
v 0.254925 -0.243725 0.115086
v 0.254087 -0.242196 0.116733
v 0.254432 -0.243513 0.116723
v 0.254531 -0.243343 0.116188
v 0.254740 -0.243811 0.115792
v 0.254080 -0.242478 0.116986
v 0.254075 -0.242697 0.117181
v 0.254476 -0.243345 0.116323
v 0.254649 -0.243854 0.116139
v 0.254066 -0.243032 0.117481
v 0.254510 -0.243919 0.116671
v 0.254059 -0.243334 0.117751
v 0.254384 -0.243977 0.117150
v 0.254050 -0.243713 0.118090
v 0.254265 -0.244033 0.117608
v 0.253263 -0.230309 0.151746
v 0.253556 -0.229548 0.152093
v 0.253204 -0.229320 0.152519
v 0.253015 -0.230300 0.152179
v 0.253404 -0.230570 0.151363
v 0.253338 -0.229767 0.151648
v 0.253489 -0.231320 0.151450
v 0.253900 -0.232204 0.150819
v 0.253729 -0.232240 0.150703
v 0.253404 -0.231443 0.151080
v 0.253128 -0.230767 0.151399
v 0.252826 -0.230026 0.151749
v 0.252493 -0.229209 0.152135
v 0.253018 -0.228895 0.152219
v 0.252743 -0.228031 0.152820
v 0.253259 -0.227555 0.153170
v 0.253582 -0.228507 0.152508
v 0.252212 -0.228520 0.152460
v 0.253793 -0.227063 0.153531
v 0.253716 -0.228212 0.153026
v 0.254248 -0.226643 0.153840
v 0.253340 -0.227894 0.153430
v 0.252460 -0.229106 0.153032
v 0.254252 -0.232961 0.150278
v 0.254041 -0.233006 0.150341
v 0.253921 -0.196497 0.106356
v 0.253305 -0.195995 0.106605
v 0.253417 -0.196158 0.107333
v 0.252812 -0.195593 0.106804
v 0.253201 -0.196013 0.107753
v 0.251762 -0.195094 0.109783
v 0.251758 -0.195167 0.110328
v 0.252472 -0.195663 0.110200
v 0.252257 -0.195378 0.109585
v 0.251751 -0.195291 0.111259
v 0.252740 -0.196019 0.110970
v 0.251745 -0.195412 0.112169
v 0.253017 -0.196387 0.111765
v 0.254197 -0.394080 0.009042
v 0.254923 -0.394302 0.012483
v 0.254807 -0.393127 0.010530
v 0.254203 -0.393710 0.008825
v 0.254726 -0.392304 0.009164
v 0.254218 -0.392732 0.008251
v 0.254655 -0.391537 0.008376
v 0.254230 -0.391938 0.007785
v 0.254595 -0.390853 0.007930
v 0.254241 -0.391237 0.007374
v 0.254537 -0.390195 0.007501
v 0.254263 -0.390530 0.007041
v 0.254516 -0.389955 0.007344
v 0.254204 -0.395168 0.157257
v 0.254162 -0.395209 0.158623
v 0.253821 -0.394953 0.158591
v 0.253720 -0.394952 0.160281
v 0.253861 -0.394533 0.161247
v 0.253222 -0.394412 0.161249
v 0.253441 -0.394739 0.159913
v 0.254170 -0.395169 0.160043
v 0.254497 -0.394625 0.161366
v 0.254843 -0.394051 0.162764
v 0.254014 -0.393986 0.162552
v 0.253971 -0.393408 0.163984
v 0.253364 -0.393402 0.163817
v 0.253293 -0.393910 0.162525
v 0.254979 -0.393398 0.164217
v 0.253452 -0.392082 0.166208
v 0.253416 -0.392945 0.164859
v 0.254253 -0.392772 0.165164
v 0.257626 -0.393642 0.156087
v 0.253845 -0.394900 0.159784
v 0.253820 -0.394944 0.159659
v 0.257915 -0.393714 0.156140
v 0.255749 -0.394266 0.157922
v 0.255531 -0.394659 0.157517
v 0.256951 -0.393820 0.155616
v 0.253697 -0.395432 0.158996
v 0.255857 -0.394332 0.157909
v 0.255437 -0.394415 0.157436
v 0.253699 -0.395390 0.159013
v 0.257063 -0.393902 0.155583
v 0.256393 -0.394050 0.155144
v 0.255030 -0.394493 0.156962
v 0.253608 -0.395724 0.158530
v 0.255746 -0.394193 0.154721
v 0.254551 -0.394591 0.156481
v 0.253520 -0.396048 0.158061
v 0.254107 -0.395003 0.156075
v 0.253431 -0.396377 0.157584
v 0.253954 -0.395461 0.155741
v 0.253367 -0.396612 0.157244
v 0.254408 -0.395599 0.156007
v 0.253390 -0.396536 0.157362
v 0.255027 -0.395460 0.156487
v 0.253474 -0.396232 0.157811
v 0.255310 -0.395074 0.157073
v 0.253583 -0.395842 0.158390
v 0.255838 -0.394115 0.154840
v 0.256397 -0.393967 0.155230
v 0.255274 -0.394264 0.154446
v 0.254946 -0.394351 0.154217
v 0.255188 -0.394316 0.154356
v 0.154275 0.043220 0.021335
v 0.153430 0.039920 0.017874
v 0.153723 0.040741 0.016309
v 0.154405 0.043789 0.018611
v 0.154032 0.040724 0.023321
v 0.153192 0.039255 0.019141
v 0.154771 0.046384 0.021450
v 0.154691 0.046686 0.024048
v 0.154346 0.044441 0.024691
v 0.154040 0.041910 0.026058
v 0.154822 0.046140 0.019194
v 0.154550 0.044236 0.016015
v 0.154875 0.045889 0.016869
v 0.154033 0.041609 0.014657
v 0.154291 0.045322 0.027490
v 0.154028 0.043143 0.028886
v 0.153423 0.047061 0.030022
v 0.153765 0.045368 0.032267
v 0.153904 0.047640 0.026007
v 0.153112 0.048601 0.027979
v 0.151857 0.045705 0.064940
v 0.154242 0.045862 0.065063
v 0.154604 0.043849 0.058113
v 0.151532 0.043902 0.058429
v 0.153138 0.045789 0.065006
v 0.152997 0.045373 0.063606
v 0.151465 0.045418 0.063866
v 0.154318 0.045440 0.063606
v 0.153022 0.043876 0.058276
v 0.152967 0.044248 0.059622
v 0.154529 0.044267 0.059556
v 0.151455 0.044258 0.059700
v 0.151372 0.044640 0.061063
v 0.152891 0.044621 0.060975
v 0.154458 0.044660 0.060913
v 0.151288 0.045027 0.062444
v 0.152929 0.044988 0.062301
v 0.154390 0.045042 0.062231
vt 0.768345 0.471838
vt 0.746652 0.473654
vt 0.743810 0.448163
vt 0.770004 0.448594
vt 0.281981 0.007841
vt 0.286679 0.030871
vt 0.255191 0.035187
vt 0.262863 0.002149
vt 0.394664 0.762805
vt 0.413658 0.758370
vt 0.411549 0.783458
vt 0.392120 0.784498
vt 0.192067 0.318711
vt 0.207431 0.320717
vt 0.204980 0.349464
vt 0.180072 0.334103
vt 0.152420 0.149262
vt 0.148919 0.091029
vt 0.165847 0.074464
vt 0.165847 0.143726
vt 0.279231 0.326956
vt 0.265717 0.326674
vt 0.263823 0.300569
vt 0.281940 0.300580
vt 0.229158 0.024441
vt 0.235141 0.001502
vt 0.188771 0.191386
vt 0.169623 0.201350
vt 0.174054 0.136396
vt 0.192314 0.131616
vt 0.221438 0.222523
vt 0.222603 0.235382
vt 0.214352 0.264371
vt 0.198036 0.280726
vt 0.184281 0.264752
vt 0.219897 0.375430
vt 0.192527 0.368661
vt 0.190233 0.351231
vt 0.224342 0.353087
vt 0.236924 0.351231
vt 0.227760 0.379079
vt 0.260792 0.334687
vt 0.241834 0.342461
vt 0.234982 0.312149
vt 0.254639 0.306225
vt 0.102398 0.633590
vt 0.100050 0.623752
vt 0.111945 0.635889
vt 0.095351 0.649173
vt 0.133173 0.643768
vt 0.138319 0.594869
vt 0.153009 0.600834
vt 0.153667 0.647846
vt 0.100875 0.587776
vt 0.116093 0.590426
vt 0.170586 0.155920
vt 0.170381 0.158739
vt 0.170065 0.154598
vt 0.170586 0.154386
vt 0.126963 0.624247
vt 0.131655 0.627736
vt 0.132678 0.628453
vt 0.126199 0.645621
vt 0.018832 0.547780
vt 0.030979 0.547798
vt 0.038623 0.574149
vt 0.034399 0.570745
vt 0.038332 0.590785
vt 0.022124 0.586062
vt 0.009320 0.123201
vt 0.010721 0.119529
vt 0.010870 0.119715
vt 0.011846 0.123201
vt 0.262477 0.156370
vt 0.263386 0.154263
vt 0.265271 0.153185
vt 0.265355 0.153901
vt 0.000724 0.180063
vt 0.000724 0.176565
vt 0.002310 0.177277
vt 0.002369 0.178177
vt 0.018527 0.687081
vt 0.007381 0.676227
vt 0.033138 0.655949
vt 0.039889 0.672391
vt 0.164386 0.035707
vt 0.086882 0.024955
vt 0.078998 0.001719
vt 0.170736 0.000997
vt 0.170441 0.124981
vt 0.170299 0.127939
vt 0.168340 0.126358
vt 0.170586 0.124843
vt 0.168340 0.123115
vt 0.169436 0.121892
vt 0.296585 0.474212
vt 0.290139 0.461361
vt 0.325157 0.463322
vt 0.325189 0.477168
vt 0.665206 0.762657
vt 0.665599 0.791222
vt 0.642909 0.790422
vt 0.644745 0.758913
vt 0.011167 0.004736
vt 0.031666 0.002695
vt 0.030164 0.020077
vt 0.006008 0.017949
vt 0.075351 0.048793
vt 0.075816 0.049754
vt 0.075174 0.049754
vt 0.075276 0.047942
vt 0.051268 0.161360
vt 0.041703 0.246626
vt 0.015791 0.267010
vt 0.033722 0.149254
vt 0.268701 0.168710
vt 0.268402 0.179922
vt 0.258411 0.173146
vt 0.266079 0.164521
vt 0.274832 0.192441
vt 0.269672 0.194278
vt 0.262588 0.180088
vt 0.002369 0.202774
vt 0.001666 0.207740
vt 0.002369 0.208494
vt 0.000541 0.207461
vt 0.259458 0.173282
vt 0.274832 0.166614
vt 0.274723 0.176823
vt 0.063960 0.391854
vt 0.076992 0.409340
vt 0.065096 0.423840
vt 0.042534 0.406060
vt 0.014995 0.468532
vt 0.031386 0.473478
vt 0.027587 0.488156
vt 0.007522 0.476828
vt 0.004052 0.444506
vt 0.019145 0.437163
vt 0.077861 0.440272
vt 0.063822 0.472188
vt 0.037228 0.441660
vt 0.098558 0.414548
vt 0.206651 0.401484
vt 0.226602 0.398773
vt 0.237608 0.412767
vt 0.201169 0.417525
vt 0.194850 0.381121
vt 0.223472 0.379565
vt 0.697489 0.484789
vt 0.710773 0.476796
vt 0.710773 0.521234
vt 0.689988 0.514725
vt 0.237131 0.433251
vt 0.199932 0.435288
vt 0.247067 0.448444
vt 0.202871 0.455925
vt 0.042941 0.722234
vt 0.067362 0.728853
vt 0.051635 0.756777
vt 0.028069 0.731967
vt 0.106464 0.741948
vt 0.116736 0.771806
vt 0.110993 0.782137
vt 0.046358 0.784884
vt 0.171560 0.398078
vt 0.149982 0.429615
vt 0.150897 0.349701
vt 0.183413 0.349804
vt 0.159971 0.573130
vt 0.140681 0.542925
vt 0.143704 0.506873
vt 0.161109 0.511665
vt 0.243312 0.071919
vt 0.235091 0.029829
vt 0.264287 0.041936
vt 0.259582 0.084163
vt 0.155122 0.055089
vt 0.156370 0.055086
vt 0.156370 0.056862
vt 0.155764 0.056036
vt 0.284653 0.473654
vt 0.271549 0.477858
vt 0.271516 0.449460
vt 0.286679 0.451778
vt 0.663194 0.563071
vt 0.676963 0.559051
vt 0.673616 0.573168
vt 0.658382 0.576274
vt 0.769077 0.005636
vt 0.770004 0.027429
vt 0.753609 0.025560
vt 0.755204 0.000402
vt 0.664971 0.510073
vt 0.686717 0.513162
vt 0.687081 0.549665
vt 0.661581 0.539334
vt 0.591942 0.053421
vt 0.595542 0.025475
vt 0.651039 0.030056
vt 0.639474 0.070795
vt 0.611355 0.080740
vt 0.600860 0.080687
vt 0.563101 0.052532
vt 0.557900 0.021564
vt 0.645221 0.128932
vt 0.603353 0.122920
vt 0.895823 0.560889
vt 0.900313 0.572473
vt 0.877729 0.572386
vt 0.876927 0.557714
vt 0.267658 0.153871
vt 0.264464 0.138512
vt 0.279571 0.139933
vt 0.279571 0.158739
vt 0.536406 0.004200
vt 0.555244 0.002188
vt 0.534367 0.019516
vt 0.184901 0.732963
vt 0.173002 0.739204
vt 0.164457 0.720841
vt 0.184273 0.718078
vt 0.192140 0.750482
vt 0.187584 0.737420
vt 0.217256 0.737058
vt 0.216876 0.752758
vt 0.520116 0.004046
vt 0.521617 0.028873
vt 0.504552 0.029970
vt 0.506284 0.000251
vt 0.526659 0.469472
vt 0.511745 0.474513
vt 0.512828 0.461563
vt 0.530940 0.459241
vt 0.663294 0.992779
vt 0.644987 0.993199
vt 0.643939 0.975136
vt 0.666680 0.977846
vt 0.659968 0.751209
vt 0.649250 0.755789
vt 0.649801 0.733415
vt 0.663388 0.733105
vt 0.539172 0.469568
vt 0.536051 0.454220
vt 0.551114 0.453579
vt 0.550483 0.473247
vt 0.016953 0.705003
vt 0.018024 0.689136
vt 0.037908 0.693118
vt 0.031096 0.710773
vt 0.007142 0.710773
vt 0.001870 0.691597
vt 0.165684 0.202281
vt 0.165620 0.202053
vt 0.165847 0.203669
vt 0.165620 0.203755
vt 0.407340 0.984267
vt 0.408652 0.964153
vt 0.433441 0.964023
vt 0.432068 0.984778
vt 0.432368 0.999821
vt 0.408121 0.998113
vt 0.391243 0.980659
vt 0.391429 0.963228
vt 0.567918 0.473849
vt 0.569366 0.452132
vt 0.621445 0.448783
vt 0.618335 0.473108
vt 0.391243 0.912807
vt 0.410373 0.916664
vt 0.411434 0.828757
vt 0.439177 0.831526
vt 0.437413 0.921956
vt 0.391380 0.826941
vt 0.704200 0.472770
vt 0.705219 0.446800
vt 0.626243 0.412620
vt 0.704751 0.403756
vt 0.737858 0.398452
vt 0.704013 0.320189
vt 0.735210 0.315805
vt 0.762658 0.311793
vt 0.766021 0.393538
vt 0.339967 0.783330
vt 0.265484 0.791704
vt 0.257226 0.768393
vt 0.331855 0.757714
vt 0.387970 0.745125
vt 0.389741 0.775716
vt 0.733656 0.232648
vt 0.760597 0.236842
vt 0.196900 0.798487
vt 0.197304 0.773008
vt 0.734413 0.144393
vt 0.761219 0.147809
vt 0.114454 0.804358
vt 0.744791 0.070924
vt 0.766968 0.073738
vt 0.044440 0.804358
vt 0.001036 0.803826
vt 0.002804 0.786357
vt 0.699140 0.138379
vt 0.707918 0.068596
vt 0.720579 0.026694
vt 0.658912 0.004185
vt 0.723725 0.002576
vt 0.708452 0.557765
vt 0.773274 0.556898
vt 0.768008 0.573250
vt 0.706166 0.572784
vt 0.761597 0.597002
vt 0.703598 0.596418
vt 0.674243 0.597256
vt 0.700569 0.638803
vt 0.674838 0.640948
vt 0.657097 0.641944
vt 0.656959 0.600163
vt 0.247765 0.475857
vt 0.206005 0.475549
vt 0.673549 0.719352
vt 0.657653 0.715294
vt 0.132650 0.476458
vt 0.140145 0.453137
vt 0.127714 0.490434
vt 0.057572 0.489019
vt 0.669794 0.789696
vt 0.689608 0.792277
vt 0.685697 0.821579
vt 0.668434 0.819764
vt 0.696475 0.723678
vt 0.740641 0.729606
vt 0.725662 0.793651
vt 0.752215 0.636682
vt 0.836637 0.637708
vt 0.821689 0.736205
vt 0.840245 0.595004
vt 0.876796 0.592282
vt 0.872902 0.640643
vt 0.839604 0.573119
vt 0.837739 0.557146
vt 0.594440 0.003434
vt 0.897420 0.643076
vt 0.894305 0.738137
vt 0.868731 0.737442
vt 0.899635 0.591819
vt 0.165017 0.497437
vt 0.186683 0.498737
vt 0.187981 0.547262
vt 0.164457 0.546345
vt 0.166076 0.479204
vt 0.185983 0.479743
vt 0.202974 0.556899
vt 0.231411 0.557587
vt 0.226358 0.657477
vt 0.197484 0.653012
vt 0.189540 0.637908
vt 0.165057 0.636973
vt 0.205471 0.505453
vt 0.232478 0.508667
vt 0.301511 0.515643
vt 0.296151 0.562527
vt 0.206728 0.485073
vt 0.234075 0.486400
vt 0.305282 0.489099
vt 0.407702 0.494174
vt 0.406445 0.522040
vt 0.047035 0.583404
vt 0.046696 0.518187
vt 0.067914 0.520054
vt 0.071077 0.584468
vt 0.068006 0.675789
vt 0.046696 0.677604
vt 0.408778 0.474632
vt 0.516786 0.478705
vt 0.516735 0.498077
vt 0.535245 0.219876
vt 0.539098 0.118872
vt 0.571856 0.119846
vt 0.558588 0.220300
vt 0.553554 0.327026
vt 0.533986 0.327991
vt 0.551994 0.418608
vt 0.534318 0.419089
vt 0.588158 0.221440
vt 0.580479 0.326101
vt 0.573996 0.417494
vt 0.632978 0.323986
vt 0.639231 0.224093
vt 0.704471 0.228787
vt 0.607867 0.480887
vt 0.643073 0.480357
vt 0.642588 0.497732
vt 0.607667 0.499476
vt 0.640226 0.521086
vt 0.606639 0.524026
vt 0.516081 0.525801
vt 0.602933 0.584038
vt 0.514756 0.578735
vt 0.404606 0.571151
vt 0.510968 0.679498
vt 0.401018 0.671538
vt 0.289853 0.663567
vt 0.399472 0.718744
vt 0.289184 0.714899
vt 0.219388 0.714461
vt 0.290089 0.739426
vt 0.191438 0.714577
vt 0.187756 0.695998
vt 0.164590 0.698176
vt 0.890777 0.801915
vt 0.888455 0.825100
vt 0.866324 0.825001
vt 0.866942 0.800647
vt 0.806646 0.824963
vt 0.814490 0.796227
vt 0.721873 0.823630
vt 0.799631 0.844636
vt 0.718775 0.844636
vt 0.685248 0.843978
vt 0.305438 0.003892
vt 0.305802 0.035854
vt 0.288189 0.036476
vt 0.288728 0.003979
vt 0.668436 0.840074
vt 0.338959 0.005566
vt 0.334906 0.036752
vt 0.328539 0.102948
vt 0.302922 0.106662
vt 0.419796 0.005635
vt 0.411407 0.036494
vt 0.395397 0.099072
vt 0.370526 0.210930
vt 0.317530 0.210850
vt 0.481075 0.032293
vt 0.471029 0.099609
vt 0.458889 0.209944
vt 0.441015 0.320139
vt 0.353131 0.321662
vt 0.499328 0.101322
vt 0.494216 0.209687
vt 0.489656 0.319072
vt 0.487564 0.409886
vt 0.428784 0.409159
vt 0.517693 0.209924
vt 0.514819 0.317964
vt 0.513590 0.409359
vt 0.513193 0.444239
vt 0.487858 0.443603
vt 0.533080 0.316902
vt 0.533080 0.408126
vt 0.532597 0.442880
vt 0.632837 0.755601
vt 0.598135 0.753364
vt 0.599276 0.728913
vt 0.632664 0.732085
vt 0.600395 0.685069
vt 0.632094 0.685625
vt 0.652094 0.685525
vt 0.073654 0.629818
vt 0.092401 0.627448
vt 0.090166 0.666662
vt 0.073852 0.668127
vt 0.635341 0.587571
vt 0.656464 0.589562
vt 0.073117 0.552942
vt 0.092401 0.549378
vt 0.501734 0.986434
vt 0.501285 0.964490
vt 0.598359 0.969376
vt 0.597418 0.989835
vt 0.073745 0.497439
vt 0.091551 0.492816
vt 0.599794 0.940830
vt 0.641457 0.948879
vt 0.500689 0.927472
vt 0.502095 0.842257
vt 0.599802 0.854859
vt 0.599142 0.789637
vt 0.639639 0.864788
vt 0.504441 0.787780
vt 0.505614 0.760599
vt 0.597353 0.760136
vt 0.439275 0.785160
vt 0.441307 0.759302
vt 0.662993 0.872142
vt 0.664138 0.952121
vt 0.677213 0.878845
vt 0.677604 0.953797
vt 0.486091 0.476098
vt 0.487316 0.462651
vt 0.412396 0.464114
vt 0.418699 0.443047
vt 0.328232 0.444191
vt 0.334486 0.408842
vt 0.289923 0.443042
vt 0.295180 0.406877
vt 0.306981 0.321597
vt 0.272035 0.402134
vt 0.283805 0.321040
vt 0.294130 0.209668
vt 0.001137 0.271070
vt 0.010989 0.158205
vt 0.280316 0.212131
vt 0.284736 0.109808
vt 0.007342 0.370545
vt 0.032651 0.363397
vt 0.021144 0.075668
vt 0.025814 0.039584
vt 0.071980 0.049481
vt 0.095816 0.079046
vt 0.265542 0.437539
vt 0.004401 0.036471
vt 0.406156 0.477403
vt 0.660465 0.520368
vt 0.508768 0.724320
vt 0.506831 0.749511
vt 0.398652 0.744278
vt 0.533069 0.208750
vt 0.262986 0.435941
vt 0.241936 0.432081
vt 0.241936 0.348955
vt 0.262253 0.350463
vt 0.520190 0.101925
vt 0.289985 0.755789
vt 0.484761 0.002854
vt 0.864612 0.843373
vt 0.886133 0.841925
vt 0.662656 0.496161
vt 0.536754 0.048549
vt 0.046775 0.493047
vt 0.064970 0.493273
vt 0.004149 0.760083
vt 0.226437 0.063339
vt 0.241088 0.126904
vt 0.222381 0.137348
vt 0.240081 0.177019
vt 0.217963 0.186332
vt 0.260750 0.142336
vt 0.255441 0.181747
vt 0.095351 0.533124
vt 0.095576 0.494369
vt 0.114588 0.508296
vt 0.114681 0.542227
vt 0.133173 0.490796
vt 0.160041 0.479382
vt 0.111459 0.710999
vt 0.073185 0.709793
vt 0.177888 0.042859
vt 0.197498 0.043273
vt 0.665889 0.494040
vt 0.687081 0.475367
vt 0.095671 0.381944
vt 0.103766 0.347315
vt 0.688453 0.554403
vt 0.693360 0.522842
vt 0.717799 0.532347
vt 0.720250 0.554403
vt 0.065902 0.347432
vt 0.095110 0.278565
vt 0.100339 0.309985
vt 0.165023 0.151617
vt 0.168216 0.159349
vt 0.166815 0.184801
vt 0.162405 0.152781
vt 0.132678 0.677125
vt 0.119171 0.691819
vt 0.132371 0.664795
vt 0.106992 0.676330
vt 0.112292 0.638544
vt 0.028275 0.620255
vt 0.015498 0.637473
vt 0.007520 0.589898
vt 0.004760 0.551626
vt 0.154745 0.690293
vt 0.154007 0.740585
vt 0.140406 0.748681
vt 0.136066 0.692290
vt 0.284309 0.078290
vt 0.280319 0.128394
vt 0.262329 0.135047
vt 0.262329 0.079469
vt 0.266540 0.243684
vt 0.246653 0.249278
vt 0.246216 0.210548
vt 0.264953 0.195057
vt 0.232041 0.268488
vt 0.001242 0.648020
vt 0.263882 0.152592
vt 0.265156 0.152221
vt 0.262477 0.152839
vt 0.262540 0.152003
vt 0.011098 0.482949
vt 0.026851 0.511942
vt 0.001242 0.508848
vt 0.011757 0.126345
vt 0.011846 0.127544
vt 0.011657 0.127939
vt 0.011657 0.126360
vt 0.253007 0.264865
vt 0.281940 0.236007
vt 0.169623 0.281939
vt 0.071927 0.678748
vt 0.093576 0.668386
vt 0.111354 0.691819
vt 0.055032 0.691819
vt 0.018954 0.066339
vt 0.018404 0.063830
vt 0.018954 0.061184
vt 0.001411 0.113724
vt 0.001411 0.112512
vt 0.002369 0.113154
vt 0.023316 0.040936
vt 0.023692 0.041291
vt 0.023316 0.042646
vt 0.218693 0.047211
vt 0.212672 0.217472
vt 0.230492 0.197286
vt 0.257453 0.191905
vt 0.161492 0.053323
vt 0.173978 0.035866
vt 0.175324 0.061356
vt 0.172131 0.069084
vt 0.170420 0.071077
vt 0.161492 0.068356
vt 0.000698 0.114386
vt 0.011846 0.130921
vt 0.009683 0.143086
vt 0.000698 0.161109
vt 0.042646 0.634050
vt 0.147810 0.155998
vt 0.156404 0.182611
vt 0.159972 0.220765
vt 0.165978 0.256494
vt 0.172698 0.317799
vt 0.146529 0.090723
vt 0.117621 0.493910
vt 0.137416 0.526314
vt 0.117621 0.549665
vt 0.002038 0.108985
vt 0.002038 0.036016
vt 0.014215 0.054815
vt 0.149988 0.049058
vt 0.157775 0.065145
vt 0.001873 0.217971
vt 0.001549 0.215169
vt 0.002157 0.214640
vt 0.002369 0.215595
vt 0.001689 0.213525
vt 0.002369 0.212438
vt 0.007108 0.009477
vt 0.006852 0.008591
vt 0.007031 0.006521
vt 0.007108 0.006506
vt 0.151632 0.152263
vt 0.150849 0.156370
vt 0.150389 0.153986
vt 0.150389 0.150866
vt 0.188697 0.039464
vt 0.189043 0.034281
vt 0.213232 0.029976
vt 0.189516 0.039723
vt 0.021323 0.042439
vt 0.021323 0.047385
vt 0.010286 0.044076
vt 0.003717 0.000368
vt 0.014215 0.000368
vt 0.013092 0.002369
vt 0.212939 0.040277
vt 0.205441 0.040277
vt 0.016585 0.094770
vt 0.012689 0.069195
vt 0.016585 0.061623
vt 0.082773 0.056862
vt 0.082773 0.053916
vt 0.085116 0.055832
vt 0.085293 0.055547
vt 0.154358 0.167357
vt 0.154358 0.152319
vt 0.004409 0.011589
vt 0.001702 0.023692
vt 0.001702 0.004475
vt 0.004738 0.005741
vt 0.163317 0.149627
vt 0.168216 0.241038
vt 0.165858 0.241663
vt 0.165858 0.238054
vt 0.167242 0.239549
vt 0.165661 0.212442
vt 0.165805 0.214050
vt 0.164592 0.214239
vt 0.164564 0.213084
vt 0.163034 0.217781
vt 0.163227 0.216476
vt 0.164564 0.216725
vt 0.164235 0.217970
vt 0.163543 0.213085
vt 0.163452 0.214233
vt 0.165847 0.217788
vt 0.165811 0.216803
vt 0.164690 0.215468
vt 0.165847 0.215430
vt 0.163360 0.215402
vt 0.272764 0.038498
vt 0.273905 0.039756
vt 0.271954 0.040702
vt 0.271039 0.038978
vt 0.272717 0.037323
vt 0.274781 0.038837
vt 0.270103 0.037633
vt 0.269744 0.043791
vt 0.271022 0.043407
vt 0.271451 0.045016
vt 0.269346 0.044723
vt 0.268676 0.042430
vt 0.270091 0.041588
vt 0.267889 0.042724
vt 0.218441 0.031850
vt 0.217968 0.030667
vt 0.220348 0.030272
vt 0.220073 0.031934
vt 0.217950 0.033587
vt 0.216476 0.032465
vt 0.219680 0.034330
vt 0.219142 0.036443
vt 0.217617 0.036020
vt 0.221266 0.034817
vt 0.220106 0.037408
vt 0.217825 0.037908
vt 0.170586 0.074600
vt 0.170466 0.077520
vt 0.169066 0.078169
vt 0.169010 0.075615
vt 0.169086 0.073477
vt 0.169622 0.073365
vt 0.168081 0.149352
vt 0.169489 0.147771
vt 0.170586 0.149754
vt 0.169782 0.151632
vt 0.268721 0.057493
vt 0.270094 0.057589
vt 0.269644 0.059231
vt 0.268057 0.058140
vt 0.268057 0.055939
vt 0.269503 0.055675
vt 0.264274 0.073380
vt 0.263031 0.073447
vt 0.262918 0.071447
vt 0.264250 0.071711
vt 0.000833 0.028119
vt 0.002284 0.028015
vt 0.002369 0.030366
vt 0.000748 0.030313
vt 0.222709 0.032915
vt 0.222467 0.035016
vt 0.221734 0.032317
vt 0.000530 0.027510
vt 0.001731 0.026432
vt 0.222173 0.030963
vt 0.001997 0.032451
vt 0.000530 0.033169
vt 0.221086 0.037667
vt 0.274832 0.042143
vt 0.274828 0.044439
vt 0.273412 0.044557
vt 0.272859 0.042663
vt 0.264314 0.069130
vt 0.265355 0.069571
vt 0.265355 0.071740
vt 0.263348 0.069249
vt 0.165847 0.038159
vt 0.165830 0.040244
vt 0.164761 0.040135
vt 0.164705 0.038406
vt 0.217802 0.029937
vt 0.215729 0.031695
vt 0.169649 0.145085
vt 0.170586 0.146025
vt 0.168923 0.146378
vt 0.165847 0.041997
vt 0.164766 0.042562
vt 0.163914 0.041846
vt 0.164060 0.040502
vt 0.215729 0.034587
vt 0.268004 0.037323
vt 0.269146 0.039683
vt 0.170586 0.079748
vt 0.169278 0.080554
vt 0.165266 0.045016
vt 0.164171 0.044672
vt 0.267374 0.040830
vt 0.167720 0.146777
vt 0.224975 0.037716
vt 0.225078 0.037754
vt 0.225078 0.037908
vt 0.224977 0.037869
vt 0.013458 0.112750
vt 0.013817 0.112750
vt 0.013642 0.113724
vt 0.013803 0.113625
vt 0.158951 0.189540
vt 0.159152 0.188847
vt 0.160610 0.188260
vt 0.161109 0.189540
vt 0.089473 0.064860
vt 0.088692 0.063996
vt 0.088850 0.063745
vt 0.089688 0.064366
vt 0.089726 0.065279
vt 0.089295 0.065635
vt 0.088918 0.065079
vt 0.088443 0.064393
vt 0.159781 0.187358
vt 0.160146 0.187756
vt 0.159386 0.188042
vt 0.159609 0.187272
vt 0.014215 0.112750
vt 0.013990 0.113709
vt 0.270094 0.002017
vt 0.270001 0.002157
vt 0.269140 0.002369
vt 0.269140 0.001370
vt 0.161066 0.213117
vt 0.161066 0.212491
vt 0.161109 0.212511
vt 0.161108 0.213232
vt 0.089764 0.066339
vt 0.090031 0.065785
vt 0.090031 0.063579
vt 0.089863 0.063965
vt 0.089061 0.063409
vt 0.089272 0.063073
vt 0.004439 0.197619
vt 0.004670 0.196569
vt 0.004739 0.196466
vt 0.004663 0.197719
vt 0.001958 0.235954
vt 0.001330 0.235663
vt 0.001074 0.234789
vt 0.001377 0.234992
vt 0.001865 0.236633
vt 0.001403 0.236353
vt 0.002369 0.236672
vt 0.002345 0.236924
vt 0.004739 0.199017
vt 0.004491 0.198514
vt 0.001297 0.234236
vt 0.001131 0.233883
vt 0.001927 0.233042
vt 0.001723 0.233810
vt 0.001445 0.234857
vt 0.000780 0.233556
vt 0.001585 0.232657
vt 0.002161 0.232024
vt 0.002359 0.232217
vt 0.002369 0.231850
vt 0.000891 0.234484
vt 0.000998 0.235386
vt 0.001090 0.236163
vt 0.007026 0.177174
vt 0.007108 0.177470
vt 0.006720 0.177423
vt 0.006606 0.177154
vt 0.011771 0.040258
vt 0.011500 0.040277
vt 0.011500 0.039929
vt 0.011846 0.039853
vt 0.009033 0.091541
vt 0.009477 0.091466
vt 0.009477 0.091704
vt 0.009116 0.091784
vt 0.009477 0.091990
vt 0.009206 0.092050
vt 0.009477 0.092279
vt 0.009295 0.092311
vt 0.009477 0.092401
vt 0.006606 0.177693
vt 0.178932 0.035860
vt 0.179495 0.035802
vt 0.179508 0.035856
vt 0.178931 0.035982
vt 0.178921 0.037908
vt 0.178922 0.037714
vt 0.179496 0.037638
vt 0.179502 0.037812
vt 0.180063 0.035566
vt 0.180063 0.035774
vt 0.180062 0.037720
vt 0.180063 0.037561
vt 0.179498 0.037461
vt 0.180062 0.037386
vt 0.179501 0.037285
vt 0.180062 0.037208
vt 0.179504 0.037109
vt 0.180063 0.037031
vt 0.179509 0.036932
vt 0.180062 0.036853
vt 0.179511 0.036755
vt 0.180063 0.036675
vt 0.179509 0.036578
vt 0.180063 0.036496
vt 0.179508 0.036400
vt 0.180062 0.036317
vt 0.179507 0.036223
vt 0.180062 0.036137
vt 0.179506 0.036046
vt 0.180062 0.035958
vt 0.178930 0.036151
vt 0.178929 0.036325
vt 0.178928 0.036499
vt 0.178928 0.036673
vt 0.178927 0.036847
vt 0.178926 0.037020
vt 0.178925 0.037192
vt 0.178924 0.037365
vt 0.178923 0.037538
vt 0.260617 0.162757
vt 0.260609 0.163478
vt 0.260617 0.163410
vt 0.260374 0.163094
vt 0.262964 0.141899
vt 0.262986 0.141974
vt 0.262964 0.142155
vt 0.262969 0.141890
vt 0.260262 0.162949
vt 0.260553 0.162367
vt 0.260260 0.168216
vt 0.260336 0.167809
vt 0.260562 0.167682
vt 0.260617 0.167877
vt 0.260352 0.167411
vt 0.260483 0.167398
vt 0.260323 0.167169
vt 0.260417 0.167164
vt 0.260277 0.166917
vt 0.260351 0.166927
vt 0.260260 0.166713
vt 0.260284 0.166687
vt 0.265355 0.052096
vt 0.265333 0.052123
vt 0.265348 0.051847
vt 0.265333 0.051828
vt 0.002296 0.164784
vt 0.002271 0.164800
vt 0.002294 0.164528
vt 0.002369 0.164506
vt 0.264075 0.066309
vt 0.264020 0.066339
vt 0.264027 0.065993
vt 0.264352 0.065953
vt 0.264263 0.065560
vt 0.264719 0.065519
vt 0.264512 0.065113
vt 0.265086 0.065086
vt 0.264723 0.064501
vt 0.265355 0.064361
vt 0.264608 0.063738
vt 0.265355 0.063156
vt 0.263892 0.064615
vt 0.263891 0.064295
vt 0.263892 0.065120
vt 0.263893 0.065560
vt 0.263894 0.065990
vt 0.002178 0.164177
vt 0.002342 0.164195
vt 0.002170 0.164493
vt 0.002170 0.164765
vt 0.002250 0.165070
vt 0.002170 0.165037
vt 0.002230 0.165302
vt 0.002170 0.165339
vt 0.002180 0.165584
vt 0.002178 0.165847
vt 0.156370 0.175239
vt 0.156359 0.175324
vt 0.156260 0.174623
vt 0.156370 0.174194
vt 0.260617 0.156123
vt 0.260617 0.156370
vt 0.260597 0.156198
vt 0.172913 0.079634
vt 0.172939 0.079644
vt 0.172955 0.080095
vt 0.172913 0.080554
vt 0.260321 0.167401
vt 0.169500 0.142155
vt 0.169500 0.141730
vt 0.170028 0.141448
vt 0.170085 0.141702
vt 0.222709 0.039060
vt 0.222690 0.039467
vt 0.222526 0.039470
vt 0.222555 0.039060
vt 0.169500 0.140606
vt 0.169770 0.140474
vt 0.169890 0.140651
vt 0.169500 0.140848
vt 0.149262 0.132274
vt 0.149259 0.132364
vt 0.149262 0.132678
vt 0.149229 0.132570
vt 0.264648 0.247521
vt 0.264682 0.247806
vt 0.264490 0.247829
vt 0.264490 0.247521
vt 0.222240 0.039353
vt 0.222150 0.039060
vt 0.222273 0.039060
vt 0.222296 0.039436
vt 0.264697 0.247573
vt 0.264879 0.247767
vt 0.264890 0.248097
vt 0.264685 0.248120
vt 0.264694 0.247642
vt 0.265082 0.247751
vt 0.265122 0.248070
vt 0.265161 0.248383
vt 0.264932 0.248419
vt 0.265042 0.247864
vt 0.265280 0.248060
vt 0.265355 0.248352
vt 0.170552 0.141039
vt 0.169979 0.141208
vt 0.170431 0.140885
vt 0.158463 0.056862
vt 0.158477 0.056549
vt 0.158501 0.056624
vt 0.158739 0.056862
vt 0.170586 0.141315
vt 0.222652 0.040277
vt 0.222587 0.040208
vt 0.222480 0.039899
vt 0.222671 0.039874
vt 0.169500 0.141422
vt 0.169500 0.141126
vt 0.169944 0.140952
vt 0.170290 0.140704
vt 0.170159 0.140502
vt 0.264688 0.248436
vt 0.264706 0.248752
vt 0.264490 0.248771
vt 0.264490 0.248453
vt 0.264490 0.248141
vt 0.222339 0.039878
vt 0.222375 0.039469
vt 0.222407 0.039060
vt 0.090031 0.067937
vt 0.089373 0.068708
vt 0.089373 0.067882
vt 0.170232 0.083435
vt 0.170524 0.084871
vt 0.169025 0.084988
vt 0.169024 0.083553
vt 0.268770 0.051697
vt 0.268373 0.050266
vt 0.270094 0.050346
vt 0.270047 0.052123
vt 0.170586 0.099316
vt 0.169396 0.099508
vt 0.168814 0.098283
vt 0.170513 0.098009
vt 0.256623 0.254878
vt 0.255521 0.255878
vt 0.254366 0.253069
vt 0.256605 0.252983
vt 0.258587 0.253246
vt 0.258005 0.255308
vt 0.269916 0.048919
vt 0.268373 0.048330
vt 0.259923 0.249538
vt 0.260617 0.251077
vt 0.258685 0.250911
vt 0.258139 0.248966
vt 0.249549 0.253629
vt 0.251140 0.253439
vt 0.250953 0.255878
vt 0.249447 0.255137
vt 0.249447 0.251879
vt 0.250956 0.251055
vt 0.257095 0.251007
vt 0.255706 0.249902
vt 0.005899 0.118053
vt 0.005199 0.116790
vt 0.006663 0.116482
vt 0.007291 0.118462
vt 0.006137 0.111978
vt 0.006047 0.114187
vt 0.004630 0.114334
vt 0.005350 0.111393
vt 0.007752 0.111789
vt 0.008073 0.114080
vt 0.007528 0.110253
vt 0.217230 0.042237
vt 0.215620 0.042618
vt 0.216228 0.039985
vt 0.217971 0.040750
vt 0.009684 0.112036
vt 0.010242 0.113689
vt 0.217971 0.043877
vt 0.216457 0.045016
vt 0.010363 0.115483
vt 0.008704 0.116150
vt 0.011846 0.116256
vt 0.009522 0.118156
vt 0.011846 0.112942
vt 0.168673 0.096048
vt 0.168832 0.093325
vt 0.170586 0.093465
vt 0.170410 0.096026
vt 0.161109 0.178923
vt 0.161056 0.182116
vt 0.159374 0.182581
vt 0.159374 0.179246
vt 0.161021 0.184658
vt 0.159446 0.184801
vt 0.169154 0.087516
vt 0.170586 0.087129
vt 0.170527 0.089147
vt 0.169024 0.090031
vt 0.260598 0.253726
vt 0.259651 0.255878
vt 0.170293 0.163543
vt 0.170586 0.163854
vt 0.170442 0.164407
vt 0.170293 0.164799
vt 0.170293 0.165847
vt 0.170491 0.164727
vt 0.170581 0.164850
vt 0.170451 0.165360
vt 0.264288 0.036354
vt 0.264526 0.036440
vt 0.264433 0.036948
vt 0.264288 0.036918
vt 0.264288 0.037431
vt 0.264439 0.037499
vt 0.264600 0.037005
vt 0.264614 0.037578
vt 0.264772 0.037069
vt 0.264810 0.037666
vt 0.264954 0.037129
vt 0.264995 0.037749
vt 0.265119 0.037124
vt 0.265176 0.037831
vt 0.265294 0.037326
vt 0.265355 0.037908
vt 0.264856 0.036559
vt 0.264921 0.036583
vt 0.264699 0.036503
vt 0.001859 0.174781
vt 0.001167 0.175324
vt 0.000484 0.173243
vt 0.001704 0.173287
vt 0.003356 0.173462
vt 0.003179 0.175275
vt 0.170586 0.132228
vt 0.170021 0.133335
vt 0.168733 0.132644
vt 0.169990 0.131408
vt 0.005286 0.172068
vt 0.003479 0.171238
vt 0.003861 0.169157
vt 0.006769 0.171277
vt 0.007108 0.174179
vt 0.005381 0.173850
vt 0.004970 0.175324
vt 0.169581 0.135028
vt 0.170586 0.135865
vt 0.169472 0.137416
vt 0.168222 0.135342
vt 0.001951 0.171062
vt 0.002144 0.169087
vt 0.002275 0.167856
vt 0.003029 0.167825
vt 0.225742 0.029784
vt 0.227447 0.029928
vt 0.227447 0.033169
vt 0.225569 0.033109
vt 0.003157 0.184656
vt 0.005314 0.184119
vt 0.005209 0.186080
vt 0.003046 0.186313
vt 0.001285 0.186561
vt 0.002160 0.183573
vt 0.005270 0.182327
vt 0.003527 0.187891
vt 0.005231 0.188142
vt 0.005214 0.189540
vt 0.002606 0.188831
vt 0.006651 0.187926
vt 0.006924 0.186119
vt 0.007108 0.188593
vt 0.011511 0.082531
vt 0.011631 0.084097
vt 0.010247 0.084109
vt 0.010632 0.082210
vt 0.011846 0.086024
vt 0.010583 0.086038
vt 0.009462 0.152477
vt 0.009477 0.154605
vt 0.008298 0.154587
vt 0.008339 0.152407
vt 0.008466 0.150514
vt 0.009477 0.150361
vt 0.008954 0.156345
vt 0.008458 0.156370
vt 0.000788 0.171082
vt 0.001134 0.169327
vt 0.001063 0.169317
vt 0.000955 0.167839
vt 0.000987 0.168120
vt 0.011706 0.087936
vt 0.010628 0.087836
vt 0.007108 0.182228
vt 0.006987 0.184046
vt 0.259396 0.180258
vt 0.260416 0.180269
vt 0.260434 0.182116
vt 0.259320 0.182197
vt 0.259273 0.184801
vt 0.260617 0.184801
vt 0.000499 0.222178
vt 0.001838 0.222200
vt 0.002132 0.224622
vt 0.000585 0.224609
vt 0.002369 0.227319
vt 0.000499 0.227447
vt 0.227286 0.028054
vt 0.225569 0.028633
vt 0.010247 0.089391
vt 0.011763 0.090031
vt 0.168179 0.189023
vt 0.167860 0.188929
vt 0.168216 0.189463
vt 0.167860 0.189540
vt 0.260253 0.190783
vt 0.260617 0.190418
vt 0.260516 0.190860
vt 0.260424 0.191314
vt 0.080056 0.053991
vt 0.080554 0.054149
vt 0.080056 0.054493
vt 0.260617 0.191909
vt 0.081599 0.050416
vt 0.082051 0.052123
vt 0.078860 0.051414
vt 0.080011 0.049650
vt 0.083138 0.048494
vt 0.085293 0.049531
vt 0.081286 0.047397
vt 0.083762 0.046222
vt 0.082185 0.045151
vt 0.085293 0.045446
vt 0.012518 0.108550
vt 0.012330 0.106807
vt 0.014215 0.105800
vt 0.014215 0.108985
vt 0.080280 0.044802
vt 0.079250 0.046340
vt 0.021323 0.050158
vt 0.020678 0.051761
vt 0.018478 0.051232
vt 0.019942 0.048858
vt 0.079722 0.043449
vt 0.082672 0.043261
vt 0.020320 0.053645
vt 0.021323 0.055013
vt 0.019804 0.056862
vt 0.018415 0.054567
vt 0.078670 0.048189
vt 0.011628 0.102988
vt 0.012813 0.104247
vt 0.008609 0.104247
vt 0.009686 0.102754
vt 0.011752 0.100465
vt 0.014215 0.101227
vt 0.009264 0.100173
vt 0.268247 0.072642
vt 0.268381 0.070388
vt 0.270083 0.070388
vt 0.270094 0.073447
vt 0.013872 0.099060
vt 0.011987 0.097644
vt 0.083341 0.034921
vt 0.085293 0.033961
vt 0.085059 0.036877
vt 0.083359 0.036957
vt 0.007616 0.098117
vt 0.009434 0.097320
vt 0.007130 0.100734
vt 0.002301 0.196092
vt 0.002369 0.198741
vt 0.000498 0.199016
vt 0.000417 0.195621
vt 0.000717 0.193241
vt 0.002369 0.194775
vt 0.007108 0.159232
vt 0.006752 0.161652
vt 0.005099 0.161881
vt 0.005175 0.158517
vt 0.009429 0.095544
vt 0.012606 0.095834
vt 0.085293 0.039878
vt 0.083676 0.040277
vt 0.007108 0.165677
vt 0.005529 0.165847
vt 0.156047 0.045885
vt 0.155370 0.044380
vt 0.158846 0.044380
vt 0.158100 0.046279
vt 0.154907 0.047446
vt 0.152955 0.046596
vt 0.157163 0.048323
vt 0.159965 0.047261
vt 0.159288 0.049173
vt 0.161109 0.046656
vt 0.160768 0.049614
vt 0.154098 0.051088
vt 0.154110 0.049487
vt 0.156309 0.050284
vt 0.155904 0.052123
vt 0.165847 0.226365
vt 0.164548 0.227447
vt 0.163674 0.225171
vt 0.165639 0.224771
vt 0.184663 0.035327
vt 0.184801 0.037286
vt 0.183260 0.037390
vt 0.183206 0.034806
vt 0.158197 0.050715
vt 0.158706 0.052005
vt 0.163524 0.228491
vt 0.164782 0.227471
vt 0.165737 0.229773
vt 0.163665 0.230184
vt 0.165938 0.191782
vt 0.166363 0.193445
vt 0.163602 0.193184
vt 0.163418 0.191087
vt 0.161849 0.208390
vt 0.161711 0.205783
vt 0.163478 0.205484
vt 0.163478 0.208494
vt 0.165632 0.197360
vt 0.166683 0.198309
vt 0.163302 0.199016
vt 0.163304 0.197592
vt 0.163403 0.195376
vt 0.166188 0.195578
vt 0.168216 0.195678
vt 0.161206 0.193145
vt 0.160783 0.195227
vt 0.160344 0.192065
vt 0.161109 0.070920
vt 0.160826 0.072864
vt 0.158860 0.072745
vt 0.159877 0.069885
vt 0.161109 0.074859
vt 0.159973 0.075816
vt 0.161201 0.197205
vt 0.160344 0.198201
vt 0.170367 0.102803
vt 0.170586 0.105864
vt 0.169241 0.105922
vt 0.168942 0.102946
vt 0.170586 0.118429
vt 0.169155 0.118462
vt 0.168991 0.115705
vt 0.170464 0.115669
vt 0.169055 0.112336
vt 0.170586 0.112347
vt 0.161847 0.202901
vt 0.163377 0.202818
vt 0.163524 0.231956
vt 0.165847 0.232186
vt 0.170388 0.108985
vt 0.168942 0.108577
vt 0.183206 0.040277
vt 0.184621 0.040032
vt 0.163690 0.222296
vt 0.165847 0.222789
vt 0.004738 0.203510
vt 0.004688 0.203695
vt 0.004604 0.203755
vt 0.004604 0.203421
vt 0.270037 0.158936
vt 0.270094 0.158918
vt 0.270045 0.159370
vt 0.269829 0.159233
vt 0.270059 0.159636
vt 0.269542 0.159645
vt 0.270077 0.160401
vt 0.269244 0.160070
vt 0.270094 0.161109
vt 0.269084 0.160299
vt 0.016585 0.002369
vt 0.016511 0.002086
vt 0.016439 0.001600
vt 0.016585 0.001352
vt 0.016433 0.001406
vt 0.151613 0.161109
vt 0.151499 0.160562
vt 0.151632 0.160665
vt 0.151499 0.160931
vt 0.018868 0.072832
vt 0.018706 0.072926
vt 0.018954 0.073447
vt 0.018675 0.073447
vt 0.231314 0.029915
vt 0.231459 0.029926
vt 0.231365 0.030452
vt 0.231314 0.030497
vt 0.231469 0.030697
vt 0.231329 0.030800
vt 0.231681 0.029943
vt 0.231684 0.030538
vt 0.231881 0.029958
vt 0.231878 0.030394
vt 0.232131 0.029978
vt 0.232064 0.030257
vt 0.232186 0.030167
vt 0.018751 0.001852
vt 0.018767 0.001436
vt 0.018930 0.001257
vt 0.018954 0.001772
vt 0.018618 0.002040
vt 0.018607 0.001619
vt 0.018791 0.002369
vt 0.149262 0.124996
vt 0.149191 0.125566
vt 0.149099 0.125570
vt 0.149099 0.125107
vt 0.149099 0.124715
vt 0.149147 0.124703
vt 0.015929 0.056862
vt 0.015929 0.056472
vt 0.016213 0.056450
vt 0.016093 0.056824
vt 0.015929 0.056043
vt 0.016228 0.056001
vt 0.016262 0.055564
vt 0.016585 0.055452
vt 0.016557 0.055937
vt 0.013994 0.117925
vt 0.014215 0.117782
vt 0.014215 0.118285
vt 0.014022 0.118462
vt 0.015929 0.055680
vt 0.014048 0.049754
vt 0.014005 0.049161
vt 0.014215 0.048942
vt 0.014215 0.049505
vt 0.018771 0.000881
vt 0.018954 0.000651
vt 0.004610 0.208494
vt 0.004610 0.207872
vt 0.004656 0.207617
vt 0.004739 0.208272
vt 0.004289 0.107884
vt 0.004516 0.107789
vt 0.004738 0.108501
vt 0.004355 0.108491
vt 0.163373 0.184380
vt 0.163457 0.184397
vt 0.163478 0.184801
vt 0.163373 0.184782
vt 0.004289 0.108985
vt 0.153726 0.082924
vt 0.153588 0.082553
vt 0.153918 0.082457
vt 0.153478 0.082257
vt 0.154001 0.082257
vt 0.008738 0.042634
vt 0.008728 0.042393
vt 0.009140 0.042345
vt 0.009008 0.042646
vt 0.008711 0.041981
vt 0.009306 0.041968
vt 0.008695 0.041578
vt 0.009477 0.041578
vt 0.265355 0.162116
vt 0.264332 0.163478
vt 0.264512 0.162366
vt 0.265285 0.161916
vt 0.264638 0.161588
vt 0.265097 0.161387
vt 0.264600 0.161047
vt 0.264946 0.160957
vt 0.264484 0.160661
vt 0.264811 0.160578
vt 0.264373 0.160290
vt 0.264650 0.160227
vt 0.264332 0.160154
vt 0.155805 0.080554
vt 0.155850 0.079884
vt 0.156021 0.079895
vt 0.156101 0.079064
vt 0.156053 0.078569
vt 0.156370 0.078575
vt 0.156234 0.079242
vt 0.155872 0.079182
vt 0.155739 0.078502
vt 0.155600 0.077783
vt 0.156006 0.077900
vt 0.156059 0.077172
vt 0.156356 0.077265
vt 0.156363 0.077924
vt 0.155565 0.077038
vt 0.156370 0.076032
vt 0.156354 0.076732
vt 0.155948 0.076560
vt 0.263728 0.191909
vt 0.263961 0.190657
vt 0.264172 0.190771
vt 0.264138 0.191909
vt 0.264198 0.189386
vt 0.264494 0.189678
vt 0.159889 0.042646
vt 0.159968 0.041294
vt 0.160199 0.041297
vt 0.160269 0.042553
vt 0.253509 0.259002
vt 0.253509 0.259506
vt 0.252306 0.259675
vt 0.252224 0.259373
vt 0.253509 0.259903
vt 0.252392 0.259973
vt 0.160428 0.041294
vt 0.160553 0.042483
vt 0.253509 0.260287
vt 0.252461 0.260302
vt 0.160674 0.041317
vt 0.160828 0.042416
vt 0.161006 0.041405
vt 0.161109 0.042347
vt 0.021043 0.061600
vt 0.021043 0.060580
vt 0.021323 0.060615
vt 0.021243 0.061557
vt 0.265151 0.190329
vt 0.265331 0.191055
vt 0.265074 0.191085
vt 0.265107 0.190285
vt 0.264685 0.191067
vt 0.264938 0.190118
vt 0.264396 0.190900
vt 0.264721 0.189904
vt 0.264813 0.191909
vt 0.264474 0.191909
vt 0.265156 0.191909
vt 0.265355 0.191909
vt 0.011734 0.074811
vt 0.011846 0.075816
vt 0.011556 0.075816
vt 0.011645 0.074775
vt 0.253509 0.260617
vt 0.252512 0.260598
vt 0.088532 0.058224
vt 0.089505 0.060380
vt 0.088854 0.060974
vt 0.087808 0.059398
vt 0.090031 0.057717
vt 0.090031 0.059900
vt 0.087069 0.057644
vt 0.087366 0.056384
vt 0.088525 0.056458
vt 0.089938 0.056245
vt 0.086803 0.058736
vt 0.087162 0.060532
vt 0.086529 0.059861
vt 0.088167 0.061600
vt 0.088586 0.055007
vt 0.089839 0.054721
vt 0.088219 0.053526
vt 0.089376 0.052770
vt 0.087267 0.055303
vt 0.087167 0.054214
vt 0.268912 0.062873
vt 0.269547 0.062873
vt 0.269441 0.063566
vt 0.268691 0.063396
vt 0.270094 0.062873
vt 0.270094 0.063600
vt 0.270094 0.066339
vt 0.269316 0.066217
vt 0.269324 0.065546
vt 0.270094 0.065619
vt 0.268584 0.066101
vt 0.268578 0.065467
vt 0.268572 0.064788
vt 0.269321 0.064871
vt 0.270094 0.064943
vt 0.268566 0.064099
vt 0.269374 0.064213
vt 0.270094 0.064285
s 1
usemtl tripo_mat_6c0af524-1ab1-4d38-9784-7704c6f1cfff
f 1/1 58/2 59/3 60/4
f 1/5 60/6 3/7 61/8
f 1/9 61/10 62/11 58/12
f 2/13 63/14 64/15 65/16
f 3/17 66/18 67/19 65/20
f 3/21 65/22 64/23 68/24
f 3/7 68/25 69/26 61/8
f 4/27 70/28 71/29 72/30
f 5/31 73/32 74/33 75/34
f 2/13 65/16 67/35 75/34
f 2/13 75/34 74/33 63/14
f 6/36 76/37 77/38 78/39
f 6/36 78/39 14/40 79/41
f 6/42 79/43 80/44 76/45
f 7/46 81/47 8/48 82/49
f 8/50 83/51 84/52 85/53
f 8/48 81/47 86/54 83/55
f 9/56 10/57 88/58 87/59
f 11/60 89/61 90/62 91/63
f 93/64 94/65 89/66 11/67
f 11/67 91/68 92/69 93/64
f 12/70 97/71 98/72 21/73
f 12/74 99/75 100/76 97/77
f 12/78 13/79 96/80 99/81
f 14/82 78/83 101/84 15/85
f 14/86 102/87 103/88 104/89
f 16/90 105/91 106/92 107/93
f 16/90 107/93 108/94 109/95
f 17/96 110/97 111/98 112/99
f 17/100 112/101 113/102 114/103
f 17/104 114/105 115/106 110/107
f 18/108 116/109 117/110 118/111
f 19/112 32/113 119/114 120/115
f 22/116 27/117 26/118 123/119
f 24/120 124/121 125/122 27/117
f 24/123 126/124 127/125 124/126
f 26/118 27/117 125/122 28/127
f 27/117 22/116 30/128 128/129
f 33/130 37/131 38/132 130/133
f 34/134 131/135 132/136 133/137
f 34/134 133/137 134/138 135/139
f 35/140 136/141 131/135 137/142
f 35/140 137/142 130/133 38/132
f 35/140 38/132 37/131 36/143
f 39/144 138/145 139/146 140/147
f 39/144 141/148 142/149 138/145
f 39/150 140/151 43/152 141/153
f 40/154 143/155 140/147 139/146
f 40/154 144/156 145/157 143/155
f 138/158 142/159 41/160 139/161
f 41/160 142/159 146/162 42/163
f 42/163 147/164 148/165 41/160
f 43/166 140/147 143/155 149/167
f 43/166 150/168 45/169 141/148
f 44/170 151/171 152/172 153/173
f 46/174 50/175 154/176 155/177
f 48/178 156/179 157/180 158/181
f 49/182 159/183 160/184 161/185
f 49/186 162/187 163/188 159/189
f 49/190 161/191 164/192 162/193
f 50/194 146/195 45/196 154/197
f 51/198 165/199 166/200 53/201
f 51/198 53/201 52/202 167/203
f 51/198 168/204 169/205 165/199
f 52/202 53/201 170/206 171/207
f 54/208 172/209 173/210 174/211
f 54/212 175/213 176/214 172/215
f 54/216 174/217 169/205 175/218
f 55/219 177/220 178/221 179/222
f 55/223 179/224 180/225 181/226
f 55/227 181/228 182/229 177/230
f 56/231 183/232 184/233 185/234
f 56/235 186/236 187/237 183/238
f 56/239 185/240 188/241 186/242
f 57/243 189/244 190/245 191/246
f 57/247 192/248 193/249 189/250
f 57/247 191/251 194/252 192/248
f 47/253 195/254 196/255 197/256
f 194/257 198/258 199/259 200/260
f 194/257 200/260 201/261 192/262
f 194/257 191/263 202/264 198/258
f 202/265 191/246 190/245 203/266
f 202/265 203/266 204/267 205/268
f 202/264 205/269 206/270 198/258
f 206/270 207/271 208/272 209/273
f 206/270 209/273 199/259 198/258
f 206/270 205/269 210/274 207/271
f 210/275 205/268 204/267 211/276
f 210/275 211/276 59/3 58/2
f 210/274 58/12 62/11 207/271
f 211/276 204/267 212/277 213/278
f 211/276 213/278 214/279 59/3
f 214/279 213/278 215/280 216/281
f 214/279 216/281 217/282 218/283
f 214/279 218/283 60/4 59/3
f 218/284 217/285 70/286 66/287
f 218/284 66/287 3/288 60/289
f 217/282 216/281 219/290 220/291
f 217/285 220/292 71/293 70/286
f 220/291 219/290 221/294 222/295
f 220/292 222/296 147/164 71/293
f 222/295 221/294 223/297 224/298
f 222/296 224/299 148/165 147/164
f 224/298 223/297 164/192 161/191
f 224/299 161/300 160/301 148/165
f 223/297 221/294 225/302 226/303
f 223/297 226/303 227/304 164/192
f 227/304 226/303 53/201 166/200
f 227/304 166/200 228/305 229/306
f 227/304 229/306 162/193 164/192
f 229/307 228/308 230/309 231/310
f 229/307 231/310 163/188 162/187
f 231/310 230/309 232/311 233/312
f 231/310 233/312 234/313 163/188
f 234/313 233/312 235/314 236/315
f 234/313 236/315 237/316 238/317
f 234/313 238/317 159/189 163/188
f 238/318 237/319 145/157 144/156
f 238/318 144/156 160/184 159/183
f 237/316 236/315 239/320 240/321
f 237/319 240/322 241/323 145/157
f 240/322 239/324 242/325 136/141
f 240/322 136/141 35/140 241/323
f 242/326 243/327 244/328 132/329
f 242/325 132/136 131/135 136/141
f 242/326 239/320 245/330 243/327
f 245/330 246/331 247/332 243/327
f 245/330 239/320 236/315 235/314
f 245/330 235/314 248/333 246/331
f 248/333 249/334 250/335 246/331
f 248/333 235/314 233/312 232/311
f 248/333 232/311 251/336 249/334
f 251/336 252/337 253/338 249/334
f 251/336 232/311 230/309 254/339
f 251/336 254/339 173/210 252/337
f 254/339 230/309 228/308 255/340
f 254/339 255/340 174/211 173/210
f 255/341 228/305 166/200 165/199
f 255/341 165/199 169/205 174/217
f 253/338 256/342 257/343 258/344
f 253/338 258/344 250/335 249/334
f 253/338 252/337 259/345 256/342
f 259/346 260/347 261/348 256/349
f 259/345 252/337 173/210 172/209
f 259/346 172/350 176/351 260/347
f 261/352 262/353 263/354 264/355
f 261/348 264/356 257/357 256/349
f 261/352 260/358 265/359 262/353
f 265/359 266/360 267/361 262/353
f 265/359 260/358 176/362 268/363
f 265/359 268/363 269/364 266/360
f 269/364 270/365 271/366 266/360
f 269/367 268/368 272/369 273/370
f 269/367 273/370 274/371 270/372
f 274/373 275/374 276/375 270/365
f 274/376 273/377 277/378 278/379
f 274/376 278/379 279/380 275/381
f 279/380 280/382 281/383 275/381
f 279/380 278/379 282/384 283/385
f 279/380 283/385 284/386 280/382
f 284/386 203/266 190/245 280/382
f 284/386 283/385 285/387 212/277
f 284/386 212/277 204/267 203/266
f 285/387 283/385 282/384 286/388
f 285/387 286/388 287/389 215/280
f 285/387 215/280 213/278 212/277
f 287/389 286/388 170/206 225/302
f 287/389 225/302 221/294 219/290
f 287/389 219/290 216/281 215/280
f 286/388 282/384 171/207 170/206
f 282/384 278/379 277/378 171/207
f 281/390 189/391 193/392 288/393
f 281/390 288/393 276/375 275/374
f 281/383 280/382 190/245 189/244
f 288/393 193/392 289/394 290/395
f 288/393 290/395 291/396 276/375
f 291/396 290/395 292/397 293/398
f 291/396 293/398 294/399 271/366
f 291/396 271/366 270/365 276/375
f 294/399 293/398 295/400 296/401
f 294/399 296/401 297/402 267/361
f 294/399 267/361 266/360 271/366
f 297/402 296/401 298/403 299/404
f 297/402 299/404 300/405 263/354
f 297/402 263/354 262/353 267/361
f 300/405 299/404 301/406 180/225
f 300/405 180/225 179/224 302/407
f 300/405 302/407 264/355 263/354
f 302/408 179/222 178/221 303/409
f 302/408 303/409 257/357 264/356
f 303/410 178/411 304/412 305/413
f 303/410 305/413 258/344 257/343
f 305/413 304/412 306/414 307/415
f 305/413 307/415 250/335 258/344
f 307/415 306/414 308/416 247/332
f 307/415 247/332 246/331 250/335
f 308/416 306/414 309/417 310/418
f 308/416 310/418 311/419 244/328
f 308/416 244/328 243/327 247/332
f 311/420 312/421 134/422 133/423
f 311/419 133/424 132/329 244/328
f 311/420 310/425 313/426 312/421
f 313/426 314/427 315/428 312/421
f 313/426 310/425 309/429 316/430
f 313/426 316/430 317/431 314/427
f 317/431 318/432 319/433 314/427
f 317/431 316/430 320/434 321/435
f 317/431 321/435 322/436 318/432
f 322/436 323/437 324/438 318/432
f 322/436 321/435 325/439 326/440
f 322/436 326/440 327/441 323/437
f 327/441 328/442 329/443 323/437
f 327/441 326/440 330/444 331/445
f 327/441 331/445 332/446 328/442
f 332/446 333/447 334/448 328/442
f 332/446 331/445 335/449 336/450
f 332/446 336/450 337/451 333/447
f 337/451 185/234 184/233 333/447
f 337/452 336/453 338/454 339/455
f 337/452 339/455 188/241 185/240
f 339/455 338/454 340/456 341/457
f 339/455 341/457 342/458 188/241
f 342/459 343/460 186/461 188/462
f 342/458 341/457 344/463 345/464
f 342/459 345/465 346/466 343/460
f 346/467 347/468 348/469 343/470
f 346/466 345/465 201/471 200/472
f 346/467 200/260 199/259 347/468
f 348/469 349/473 350/474 187/237
f 348/469 187/237 186/236 343/470
f 348/469 347/468 351/475 349/473
f 351/475 352/476 353/477 349/473
f 351/475 347/468 199/259 209/273
f 351/475 209/273 208/272 352/476
f 353/477 354/478 113/102 355/479
f 353/477 355/479 350/474 349/473
f 353/477 352/476 356/480 354/478
f 356/480 104/481 103/482 354/478
f 356/480 352/476 208/272 357/483
f 356/480 357/483 69/484 104/481
f 357/483 208/272 207/271 62/11
f 357/483 62/11 61/10 69/484
f 355/479 113/102 112/101 358/485
f 355/479 358/485 359/486 350/474
f 359/486 358/485 360/487 361/488
f 359/489 361/490 184/233 183/232
f 359/486 183/238 187/237 350/474
f 361/490 360/491 362/492 334/448
f 361/490 334/448 333/447 184/233
f 362/492 360/491 111/98 363/493
f 362/492 363/493 364/494 329/443
f 362/492 329/443 328/442 334/448
f 364/494 363/493 365/495 366/496
f 364/494 366/496 367/497 324/438
f 364/494 324/438 323/437 329/443
f 367/497 366/496 368/498 369/499
f 367/497 369/499 370/500 319/433
f 367/497 319/433 318/432 324/438
f 370/501 369/502 120/115 119/114
f 370/500 119/503 371/504 315/428
f 370/500 315/428 314/427 319/433
f 371/505 119/114 32/113 372/506
f 371/505 372/506 135/139 134/138
f 371/504 134/422 312/421 315/428
f 368/507 373/508 374/509 375/510
f 368/498 366/496 365/495 373/511
f 373/508 365/512 110/107 115/106
f 373/508 115/106 102/87 374/509
f 365/495 363/493 111/98 110/97
f 360/491 358/513 112/99 111/98
f 354/478 103/482 114/103 113/102
f 345/464 344/463 289/394 201/514
f 344/463 341/457 340/456 292/397
f 344/463 292/397 290/395 289/394
f 340/456 338/454 376/515 295/400
f 340/456 295/400 293/398 292/397
f 376/515 338/454 336/453 335/516
f 376/515 335/516 377/517 298/403
f 376/515 298/403 296/401 295/400
f 377/518 335/449 331/445 330/444
f 377/519 330/520 378/521 301/522
f 377/517 301/406 299/404 298/403
f 378/523 330/444 326/440 325/439
f 378/523 325/439 182/229 181/228
f 378/524 181/226 180/225 301/406
f 325/439 321/435 320/434 182/229
f 320/434 316/430 309/429 379/525
f 320/434 379/525 177/230 182/229
f 379/526 309/417 306/414 304/412
f 379/526 304/412 178/411 177/527
f 289/394 193/392 192/528 201/514
f 273/377 272/529 168/204 277/378
f 272/369 268/368 176/530 175/531
f 272/529 175/218 169/205 168/204
f 226/303 225/302 170/206 53/201
f 160/301 144/532 41/160 148/165
f 380/533 46/174 381/534 382/535
f 382/535 381/534 383/536 384/537
f 381/534 46/174 155/177 86/538
f 381/534 86/538 81/539 383/536
f 155/540 154/541 152/542 151/543
f 155/540 151/543 83/55 86/54
f 152/172 154/544 45/545 153/173
f 45/546 146/162 142/159 141/547
f 147/548 42/549 72/30 71/29
f 50/194 385/550 42/551 146/195
f 145/157 241/323 149/167 143/155
f 43/166 386/552 387/553 150/168
f 131/135 34/134 135/139 137/142
f 386/554 36/555 37/556 33/557
f 386/552 33/130 388/558 387/553
f 130/133 137/142 135/139 372/506
f 130/133 372/506 388/558 33/130
f 388/558 31/559 129/560 387/553
f 389/561 25/562 31/563 20/564
f 115/106 114/105 103/88 102/87
f 390/565 391/566 91/63 121/567
f 391/566 392/568 92/569 91/63
f 104/89 69/26 68/25 14/86
f 392/570 393/571 394/572 92/69
f 394/572 85/573 93/64 92/69
f 394/574 393/575 77/576 395/577
f 394/574 395/577 8/50 85/53
f 395/578 77/579 76/580 396/581
f 395/582 396/583 82/584 8/585
f 396/583 76/45 80/44 397/586
f 397/586 80/44 63/14 74/33
f 393/571 101/84 78/83 77/587
f 100/76 99/75 398/588 399/589
f 398/588 99/75 96/590 400/591
f 94/65 93/64 44/592 401/593
f 93/64 85/573 84/594 44/592
f 402/595 87/596 88/597 403/598
f 84/52 83/51 151/171 44/170
f 80/44 79/43 64/15 63/14
f 79/599 14/600 68/24 64/23
f 70/28 4/27 67/35 66/601
f 40/602 139/603 41/604 144/605
f 105/606 16/607 109/608
f 116/109 18/108 118/111
f 156/609 48/610 158/611
f 195/612 47/613 197/614
f 385/615 50/175 46/174 380/533
f 396/583 397/586 74/33 73/32
f 82/584 396/583 73/32 5/31
f 382/535 384/537 4/27 72/30
f 5/31 75/34 67/35 404/616
f 67/35 4/27 384/537 404/616
f 42/549 380/533 382/535 72/30
f 42/549 385/615 380/533
f 82/584 5/31 404/616 405/617
f 404/616 384/537 383/536 405/617
f 383/536 7/618 82/584 405/617
f 383/536 81/539 7/618
f 386/552 43/166 149/167 36/143
f 149/167 241/323 35/140 36/143
f 52/202 171/207 277/378 167/203
f 277/378 168/204 51/198 167/203
f 122/619 31/620 25/621 389/622
f 122/619 389/622 23/623 406/624
f 391/625 390/626 121/627
f 391/625 121/627 91/628
f 391/566 91/63 90/62
f 101/84 393/571 392/570 391/629
f 89/630 94/631 401/632 44/633 153/634 45/169 150/168 387/553 129/560 31/559 388/558 372/506 32/113 19/112 375/510 391/635
f 375/636 374/637 102/638
f 375/510 102/87 14/86
f 375/639 14/640 15/641
f 375/510 15/642 101/643
f 375/510 101/643 391/635
f 19/112 120/115 375/510
f 120/115 369/502 368/507 375/510
f 10/644 9/645 408/646 407/647
f 87/648 402/649 408/646 9/645
f 407/650 408/651 402/652 403/653
f 88/654 10/655 407/656 403/657
f 126/658 24/659 22/660 124/661
f 22/662 123/663 26/664
f 22/665 26/666 28/667
f 22/660 28/668 125/669
f 22/660 125/669 124/661
f 24/670 30/671 29/672
f 13/673 98/674 95/675 96/676
f 20/564 31/563 122/677 406/678
f 24/120 27/117 128/129 30/128
f 22/679 24/680 29/681 30/682
f 20/564 406/678 23/683 389/561
f 12/684 21/685 98/686 13/687
f 409/688 413/689 414/690 415/691
f 410/692 416/693 417/694 418/695
f 411/696 415/691 414/690 419/697
f 412/698 418/695 417/694 420/699
f 420/699 417/694 421/700 422/701
f 422/701 421/700 414/690 413/689
f 421/700 417/694 416/693 423/702
f 421/700 423/702 419/697 414/690
f 424/703 431/704 432/705 433/706
f 424/703 434/707 435/708 431/704
f 424/703 433/706 436/709 434/707
f 425/710 437/711 438/712 439/713
f 425/710 440/714 441/715 437/711
f 425/710 439/713 442/716 440/714
f 426/717 443/718 444/719 445/720
f 426/717 446/721 447/722 443/718
f 426/717 445/720 448/723 446/721
f 427/724 449/725 446/721 448/723
f 427/724 448/723 450/726 451/727
f 427/724 451/727 452/728 449/725
f 428/729 452/730 434/731 436/732
f 428/729 436/732 453/733 454/734
f 428/735 456/736 449/737 452/738
f 429/739 457/740 458/741 459/742
f 429/739 460/743 438/744 457/740
f 429/745 459/746 444/747 460/748
f 430/749 458/750 461/751 462/752
f 430/753 462/754 450/726 463/755
f 430/749 463/756 459/757 458/750
f 463/755 445/720 444/719 459/758
f 463/755 450/726 448/723 445/720
f 462/752 461/751 431/759 435/760
f 462/754 435/761 451/727 450/726
f 461/762 458/763 457/764 464/765
f 461/762 464/765 432/705 431/704
f 464/765 457/764 438/712 437/711
f 464/765 437/711 441/715 432/705
f 460/748 465/766 439/767 438/768
f 460/748 444/747 443/769 465/766
f 465/770 466/771 442/772 439/773
f 465/774 443/718 447/722 466/775
f 466/776 447/777 456/736 455/778
f 466/771 455/779 467/780 442/772
f 467/780 468/781 440/782 442/772
f 456/783 447/722 446/721 449/725
f 453/784 436/709 433/706 469/785
f 469/785 433/706 432/705 441/715
f 452/730 451/786 435/787 434/731
f 468/781 467/780 428/788 454/789
f 453/784 469/785 468/790
f 469/785 441/715 440/714 468/790
f 428/735 467/791 455/778 456/736
f 470/792 471/793 472/794 473/795
f 474/796 484/797 478/798 485/799
f 475/800 486/801 487/802 483/803
f 476/804 488/805 489/806 490/807
f 476/804 491/808 492/809 493/810
f 476/804 493/810 477/811 488/805
f 478/812 494/813 495/814 485/815
f 478/798 484/797 496/816 497/817
f 479/818 498/819 481/820 480/821
f 479/822 499/823 482/824 498/825
f 479/826 492/809 491/808 499/827
f 496/828 500/829 501/830 497/831
f 501/830 500/829 490/807 489/806
f 495/814 494/813 487/802 486/801
f 502/832 504/833 505/834 506/835
f 502/836 507/837 508/838 504/839
f 502/836 509/840 510/841 507/837
f 502/836 511/842 512/843 509/840
f 502/832 506/835 513/844 511/845
f 503/846 514/847 515/848 516/849
f 503/846 516/849 505/850 504/839
f 503/846 504/839 508/838 514/847
f 515/848 514/847 517/851 518/852
f 518/852 519/853 520/854 515/848
f 520/854 519/853 521/855
f 517/851 514/847 508/838 522/856
f 522/856 508/838 507/837 523/857
f 523/857 507/837 510/841 524/858
f 513/859 525/860 526/861 511/862
f 526/863 527/864 512/865 511/866
f 528/867 529/868 530/869 531/870
f 531/870 530/869 532/871 533/872
f 533/872 532/871 534/873 535/874
f 535/874 534/873 536/875
f 527/876 526/861 525/860
f 537/877 541/878 542/879 543/880
f 538/881 544/882 545/883 546/884
f 539/885 547/886 542/879 541/878
f 540/887 546/884 545/883 548/888
f 548/888 545/883 549/889 550/890
f 550/890 549/889 551/891 552/892
f 552/892 551/891 553/893 554/894
f 554/894 553/893 555/895 556/896
f 556/896 555/895 557/897 558/898
f 558/898 557/897 559/899 560/900
f 560/900 559/899 561/901 562/902
f 562/902 561/901 563/903 564/904
f 564/904 563/903 565/905 566/906
f 566/906 565/905 542/879 547/886
f 565/905 567/907 543/880 542/879
f 565/905 563/903 568/908 567/907
f 568/908 563/903 561/901 569/909
f 569/909 561/901 559/899 570/910
f 570/910 559/899 557/897 571/911
f 571/911 557/897 555/895 572/912
f 572/912 555/895 553/893 573/913
f 573/913 553/893 551/891 574/914
f 574/914 551/891 549/889 575/915
f 575/915 549/889 545/883 544/882
f 576/916 577/917 578/918 579/919
f 578/920 577/921 580/922 581/923
f 582/924 583/925 576/916 579/919
f 584/926 585/927 586/928 587/929
f 586/928 585/927 588/930 589/931
f 589/931 588/930 590/932 591/933
f 591/933 590/932 592/934 593/935
f 593/935 592/934 594/936 595/937
f 595/938 594/939 596/940 597/941
f 597/942 596/943 598/944 599/945
f 599/946 598/947 600/948 601/949
f 601/949 600/948 602/950 603/951
f 603/951 602/950 604/952 605/953
f 605/953 604/952 606/954 607/955
f 607/955 606/954 608/956 609/957
f 608/956 606/954 610/958 611/959
f 610/958 606/954 604/952 612/960
f 612/960 604/952 602/950 613/961
f 613/961 602/950 600/948 614/962
f 614/963 600/964 598/944 615/965
f 615/965 598/944 596/943 616/966
f 616/966 596/943 594/967 617/968
f 617/968 594/967 592/969 618/970
f 618/970 592/969 590/971 619/972
f 581/973 577/974 576/975 583/976
f 581/977 580/978 577/979
f 619/980 588/981 585/982 584/983
f 619/984 590/932 588/930
f 620/985 624/986 625/987 626/988
f 621/989 627/990 628/991 629/992
f 622/993 630/994 631/995 632/996
f 623/997 633/998 634/999 635/1000
f 634/1001 636/1002 637/1003 635/1004
f 634/1005 633/1006 638/1007 639/1008
f 634/1001 639/1009 640/1010 636/1002
f 640/1010 641/1011 642/1012 636/1002
f 640/1010 639/1009 643/1013 644/1014
f 640/1010 644/1014 645/1015 641/1011
f 645/1015 646/1016 647/1017 641/1011
f 645/1015 644/1014 648/1018 649/1019
f 645/1015 649/1019 650/1020 646/1016
f 650/1021 625/987 651/1022 646/1023
f 650/1024 649/1025 652/1026 653/1027
f 650/1021 653/1028 626/988 625/987
f 652/1029 649/1030 648/1031 654/1032
f 654/1032 648/1031 628/991 627/990
f 651/1022 655/1033 656/1034 657/1035
f 651/1022 657/1035 647/1036 646/1023
f 651/1022 625/987 624/986 655/1033
f 657/1035 656/1034 632/996 631/995
f 657/1035 631/995 658/1037 647/1036
f 658/1038 631/1039 630/1040 659/1041
f 658/1038 659/1041 660/1042 642/1012
f 658/1038 642/1012 641/1011 647/1017
f 660/1042 637/1003 636/1002 642/1012
f 648/1031 644/1043 643/1044 628/991
f 643/1044 639/1008 638/1007 661/1045
f 643/1044 661/1045 629/992 628/991
f 662/1046 663/1047 664/1048
f 665/1049 673/1050 674/1051 669/1052
f 665/1053 675/1054 676/1055 673/1056
f 665/1057 669/1058 677/1059 675/1060
f 666/1061 678/1062 679/1063 680/1064
f 666/1061 680/1064 681/1065 676/1066
f 666/1067 676/1055 675/1054 678/1068
f 667/1069 682/1070 683/1071 684/1072
f 667/1073 685/1074 686/1075 682/1076
f 667/1073 684/1077 687/1078 685/1074
f 668/1079 683/1071 681/1065 680/1064
f 668/1079 688/1080 684/1072 683/1071
f 668/1079 680/1064 679/1063 688/1080
f 669/1081 674/1082 689/1083 677/1084
f 670/1085 690/1086 691/1087 686/1088
f 670/1085 692/1089 693/1090 690/1086
f 670/1085 686/1088 685/1091 692/1089
f 671/1092 687/1093 694/1094 695/1095
f 671/1096 695/1097 693/1090 692/1089
f 671/1092 692/1098 685/1099 687/1093
f 672/1100 696/1101 693/1090 695/1097
f 672/1100 697/1102 698/1103 696/1101
f 672/1100 695/1097 694/1104 697/1102
f 698/1105 697/1106 679/1107 678/1108
f 698/1105 678/1108 675/1060 677/1059
f 698/1103 677/1084 689/1083 696/1101
f 697/1109 694/1110 688/1111 679/1112
f 696/1101 689/1083 690/1086 693/1090
f 694/1110 687/1113 684/1114 688/1111
f 691/1087 690/1086 689/1083 674/1082
f 691/1115 674/1051 673/1050 699/1116
f 691/1115 699/1116 682/1117 686/1118
f 699/1119 673/1120 676/1066 681/1065
f 699/1119 681/1065 683/1071 682/1070
f 701/1121 704/1122 705/1123 706/1124
f 700/1125 707/1126 708/1127 709/1128
f 702/1129 710/1130 711/1131 712/1132
f 703/1133 712/1132 711/1131 713/1134
f 713/1134 711/1131 714/1135 715/1136
f 715/1136 714/1135 716/1137 717/1138
f 717/1138 716/1137 708/1139 718/1140
f 718/1140 708/1139 707/1141 719/1142
f 719/1142 707/1141 705/1143 704/1144
f 716/1137 720/1145 709/1146 708/1139
f 716/1137 714/1135 721/1147 720/1145
f 721/1147 714/1135 711/1131 710/1130
f 705/1123 707/1126 700/1125 706/1124
f 722/1148 729/1149 730/1150 731/1151
f 722/1148 731/1151 732/1152 733/1153
f 722/1154 733/1155 734/1156 729/1157
f 723/1158 735/1159 725/1160 736/1161
f 723/1158 736/1161 737/1162 738/1163
f 723/1158 738/1163 732/1152 735/1159
f 724/1164 733/1153 732/1152 738/1163
f 724/1165 738/1166 737/1167 739/1168
f 724/1165 739/1168 734/1156 733/1155
f 725/1160 735/1159 740/1169 741/1170
f 725/1160 741/1170 742/1171 743/1172
f 725/1173 744/1174 745/1175 736/1176
f 726/1177 746/1178 747/1179 748/1180
f 726/1177 748/1180 749/1181 745/1182
f 726/1177 745/1182 744/1183 746/1178
f 727/1184 750/1185 751/1186 752/1187
f 727/1184 748/1180 747/1179 750/1185
f 727/1184 752/1187 749/1181 748/1180
f 728/1188 750/1185 747/1179 753/1189
f 728/1188 754/1190 751/1186 750/1185
f 728/1191 753/1192 755/1193 754/1194
f 755/1193 753/1192 756/1195 757/1196
f 755/1197 757/1198 758/1199 730/1200
f 755/1197 730/1200 729/1201 754/1202
f 758/1199 757/1198 759/1203 760/1204
f 758/1205 760/1206 741/1170 740/1169
f 758/1205 740/1169 731/1151 730/1150
f 760/1206 759/1207 761/1208 762/1209
f 760/1206 762/1209 742/1171 741/1170
f 763/1210 759/1211 757/1196 756/1195
f 763/1212 756/1213 746/1178 744/1183
f 756/1213 753/1189 747/1179 746/1178
f 754/1214 729/1215 734/1216 751/1217
f 752/1218 751/1217 734/1216 739/1219
f 752/1220 739/1221 737/1222 749/1223
f 749/1223 737/1222 736/1224 745/1225
f 763/1226 744/1174 725/1173 743/1227
f 740/1169 735/1159 732/1152 731/1151
f 761/1228 759/1211 763/1210 743/1229
f 764/1230 768/1231 769/1232 770/1233
f 770/1234 769/1235 767/1236 766/1237
f 768/1238 764/1239 770/1240
f 765/1241 766/1237 767/1236 769/1235
f 771/1242 779/1243 780/1244 781/1245
f 771/1242 782/1246 783/1247 779/1243
f 771/1242 781/1245 784/1248 782/1246
f 772/1249 782/1246 784/1248 785/1250
f 772/1249 786/1251 783/1247 782/1246
f 772/1252 785/1253 787/1254 786/1255
f 773/1256 785/1250 784/1248 788/1257
f 773/1258 788/1259 789/1260 790/1261
f 773/1256 790/1262 787/1263 785/1250
f 774/1264 781/1265 780/1266 791/1267
f 774/1264 791/1267 789/1260 788/1259
f 774/1268 788/1257 784/1248 781/1245
f 775/1269 792/1270 793/1271 778/1272
f 775/1269 794/1273 795/1274 792/1270
f 775/1269 778/1272 796/1275 794/1273
f 776/1276 797/1277 789/1278 791/1279
f 776/1280 795/1274 794/1273 797/1281
f 776/1282 791/1283 780/1284 795/1285
f 777/1286 798/1287 796/1275 799/1288
f 777/1289 799/1290 786/1291 787/1292
f 777/1289 787/1292 790/1293 798/1294
f 778/1272 793/1271 799/1288 796/1275
f 799/1295 793/1296 783/1297 786/1298
f 798/1287 790/1299 789/1300 797/1281
f 798/1287 797/1281 794/1273 796/1275
f 795/1285 780/1284 779/1301 792/1302
f 793/1296 792/1303 779/1304 783/1297
f 800/1305 808/1306 809/1307 810/1308
f 800/1305 811/1309 812/1310 808/1306
f 800/1305 810/1308 813/1311 811/1309
f 801/1312 814/1313 813/1311 810/1308
f 801/1312 810/1308 809/1307 815/1314
f 801/1312 815/1314 816/1315 814/1313
f 802/1316 817/1317 818/1318 819/1319
f 802/1320 820/1321 821/1322 817/1323
f 802/1324 819/1325 822/1326 820/1327
f 803/1328 823/1329 819/1319 818/1318
f 803/1328 814/1313 816/1315 823/1329
f 803/1328 818/1318 813/1311 814/1313
f 804/1330 821/1331 820/1332 824/1333
f 804/1334 824/1335 825/1336 826/1337
f 804/1338 826/1339 812/1340 821/1341
f 805/1342 827/1343 828/1344 829/1345
f 805/1342 829/1345 830/1346 831/1347
f 805/1342 831/1347 822/1348 827/1343
f 806/1349 825/1336 830/1346 832/1350
f 806/1349 833/1351 826/1337 825/1336
f 806/1352 832/1353 834/1354 833/1355
f 807/1356 835/1357 834/1354 832/1353
f 807/1358 829/1345 828/1344 835/1359
f 807/1358 832/1350 830/1346 829/1345
f 835/1360 828/1361 816/1362 815/1363
f 835/1364 815/1365 809/1366 834/1367
f 834/1367 809/1366 808/1368 833/1369
f 833/1370 808/1371 812/1340 826/1339
f 831/1372 824/1333 820/1332 822/1373
f 831/1347 830/1346 825/1336 824/1335
f 828/1361 827/1374 823/1375 816/1362
f 827/1376 822/1326 819/1325 823/1377
f 821/1322 812/1378 811/1379 817/1323
f 818/1318 817/1317 811/1309 813/1311
f 836/1380 837/1381 838/1382 839/1383
f 838/1384 837/1385 840/1386 841/1387
f 841/1387 840/1386 842/1388 843/1389
f 843/1389 842/1388 844/1390 845/1391
f 845/1391 844/1390 846/1392 847/1393
f 842/1394 840/1395 837/1396 839/1397
f 837/1396 836/1398 839/1397
f 849/1399 851/1400 852/1401 853/1402
f 850/1403 854/1404 852/1405 851/1406
f 854/1407 855/1408 856/1409 852/1410
f 856/1409 857/1411 853/1412 852/1410
f 856/1409 855/1408 858/1413 859/1414
f 856/1409 859/1414 857/1411
f 859/1414 858/1413 860/1415 861/1416
f 861/1416 860/1415 862/1417 863/1418
f 863/1418 862/1417 848/1419
f 864/1420 865/1421 866/1422 867/1423
f 864/1420 868/1424 869/1425 865/1421
f 864/1420 867/1423 870/1426 868/1424
f 870/1427 871/1428 872/1429 873/1430
f 870/1427 873/1430 874/1431 868/1432
f 874/1433 875/1434 869/1435 868/1436
f 875/1434 876/1437 877/1438 869/1435
f 877/1438 878/1439 879/1440 880/1441
f 877/1442 880/1443 865/1444 869/1445
f 877/1438 876/1437 881/1446 878/1439
f 880/1447 879/1448 882/1449 883/1450
f 880/1451 883/1452 866/1422 865/1421
f 883/1453 882/1454 884/1455 885/1456
f 883/1457 885/1458 886/1459 866/1460
f 872/1461 871/1462 887/1463 888/1464
f 867/1465 866/1460 886/1459
f 889/1466 890/1467 891/1468
f 890/1467 892/1469 893/1470 891/1468
f 894/1471 895/1472 896/1473 897/1474
f 896/1473 895/1472 898/1475 899/1476
f 899/1476 898/1475 900/1477 901/1478
f 902/1479 903/1480 904/1481 905/1482
f 905/1482 904/1481 906/1483 907/1484
f 907/1484 906/1483 908/1485 909/1486
f 909/1486 908/1485 910/1487 911/1488
f 911/1488 910/1487 912/1489 913/1490
f 913/1490 912/1489 914/1491
f 915/1492 916/1493 917/1494
f 918/1495 919/1496 920/1497 921/1498
f 921/1498 917/1494 916/1493 922/1499
f 918/1495 921/1498 922/1499
f 918/1495 922/1499 923/1500 919/1496
f 923/1500 924/1501 925/1502 919/1496
f 925/1502 926/1503 927/1504 928/1505
f 925/1502 928/1505 920/1497 919/1496
f 925/1502 924/1501 929/1506 926/1503
f 930/1507 931/1508 932/1509
f 926/1503 929/1506 932/1509 931/1508
f 926/1503 931/1508 927/1504
f 933/1510 937/1511 938/1512 939/1513
f 934/1514 940/1515 938/1512 937/1511
f 935/1516 941/1517 942/1518 943/1519
f 936/1520 944/1521 942/1522 941/1523
f 944/1521 945/1524 946/1525 942/1522
f 946/1526 947/1527 943/1519 942/1518
f 946/1525 945/1524 948/1528 949/1529
f 946/1526 949/1530 950/1531 947/1527
f 950/1531 949/1530 951/1532 952/1533
f 952/1534 951/1535 953/1536 954/1537
f 954/1538 953/1539 955/1540 956/1541
f 956/1541 955/1540 957/1542 958/1543
f 958/1543 957/1542 959/1544 960/1545
f 960/1545 959/1544 938/1512 940/1515
f 959/1544 957/1542 961/1546 962/1547
f 959/1544 962/1547 939/1513 938/1512
f 961/1546 957/1542 955/1540 963/1548
f 963/1548 955/1540 953/1539 964/1549
f 964/1550 953/1551 951/1552 965/1553
f 965/1554 951/1555 949/1529 948/1528
f 966/1556 967/1557 968/1558 969/1559
f 966/1556 970/1560 971/1561 967/1557
f 966/1556 972/1562 973/1563 974/1564
f 966/1556 974/1564 975/1565 970/1560
f 966/1556 969/1559 976/1566 972/1562
f 976/1566 969/1559 977/1567 978/1568
f 977/1567 969/1559 968/1558 979/1569
f 975/1565 974/1564 980/1570 981/1571
f 981/1571 980/1570 982/1572 983/1573
f 982/1572 980/1570 984/1574 985/1575
f 984/1574 980/1570 974/1564 973/1563
f 986/1576 990/1577 991/1578 992/1579
f 987/1580 993/1581 991/1578 990/1577
f 988/1582 994/1583 995/1584 996/1585
f 989/1586 997/1587 995/1584 994/1583
f 997/1587 998/1588 999/1589 995/1584
f 999/1589 1000/1590 996/1585 995/1584
f 999/1589 998/1588 1001/1591 1002/1592
f 999/1589 1002/1592 1003/1593 1000/1590
f 1003/1593 1002/1592 991/1578 993/1581
f 1002/1592 1001/1591 992/1579 991/1578
